<svg width="20" height="22" viewBox="0 0 20 22" fill="none" xmlns="http://www.w3.org/2000/svg">
<path d="M11.9043 1V5.02664C11.9043 5.58261 12.3485 6.0333 12.8964 6.0333H16.8646" stroke="#111827" stroke-width="1.5" stroke-linecap="round" stroke-linejoin="round"/>
<path fill-rule="evenodd" clip-rule="evenodd" d="M14.8813 19.1199H4.96069C3.86489 19.1199 2.97656 18.2185 2.97656 17.1066V3.01332C2.97656 1.90139 3.86489 1 4.96069 1H11.9051L16.8655 6.0333V17.1066C16.8655 18.2185 15.9771 19.1199 14.8813 19.1199Z" stroke="#111827" stroke-width="1.5" stroke-linecap="round" stroke-linejoin="round"/>
<path d="M12.4017 8.22363L6.94531 15.3939M6.94531 8.22363L12.4017 15.3939" stroke="#111827" stroke-width="1.5" stroke-linecap="round"/>
<path d="M2 16.5996H18C18.8284 16.5996 19.5 17.2712 19.5 18.0996V19.9997C19.5 20.8281 18.8284 21.4997 18 21.4997H2C1.17157 21.4997 0.5 20.8281 0.5 19.9997V18.0996C0.5 17.2712 1.17157 16.5996 2 16.5996Z" fill="white" stroke="#111827"/>
<path d="M7.27344 19.9638H7.71231L8.26163 19.1616L8.81094 19.9638H9.24691L8.46217 18.8785L9.24691 17.7932H8.81094L8.26163 18.5924L7.71231 17.7932H7.27344L8.06399 18.8785L7.27344 19.9638Z" fill="#111827"/>
<path d="M9.83691 17.7932H9.46489V19.9638H10.8571V19.6394H9.83691V17.7932Z" fill="#111827"/>
<path d="M11.1303 19.4477L11.0169 19.7485C11.1855 19.8989 11.4907 19.9933 11.8075 19.9933C12.287 19.9933 12.6126 19.7338 12.6126 19.3563C12.6126 19.0731 12.3888 18.8637 11.9935 18.7723L11.7377 18.7133C11.543 18.6691 11.4296 18.5688 11.4296 18.4332C11.4296 18.212 11.5895 18.0822 11.854 18.0822C12.0487 18.0822 12.2609 18.1559 12.4382 18.2857L12.5486 18.0055C12.4033 17.8551 12.1359 17.7607 11.854 17.7607C11.3802 17.7607 11.0547 18.0321 11.0547 18.4332C11.0547 18.7251 11.2756 18.9404 11.668 19.0289C11.7988 19.0584 11.8889 19.079 11.9237 19.0849C12.1243 19.1321 12.2376 19.2294 12.2376 19.3563C12.2376 19.5539 12.0778 19.6718 11.8075 19.6718C11.5866 19.6718 11.3366 19.5892 11.1303 19.4477Z" fill="#111827"/>
</svg>
