<svg width="20" height="23" viewBox="0 0 20 23" fill="none" xmlns="http://www.w3.org/2000/svg">
<path d="M11.9043 1.5V5.52664C11.9043 6.08261 12.3485 6.5333 12.8964 6.5333H16.8646" stroke="#111827" stroke-width="1.5" stroke-linecap="round" stroke-linejoin="round"/>
<path fill-rule="evenodd" clip-rule="evenodd" d="M14.8813 19.6199H4.96069C3.86489 19.6199 2.97656 18.7185 2.97656 17.6066V3.51332C2.97656 2.40139 3.86489 1.5 4.96069 1.5H11.9051L16.8655 6.5333V17.6066C16.8655 18.7185 15.9771 19.6199 14.8813 19.6199Z" stroke="#111827" stroke-width="1.5" stroke-linecap="round" stroke-linejoin="round"/>
<path d="M12.4017 8.72363L6.94531 15.8939M6.94531 8.72363L12.4017 15.8939" stroke="#111827" stroke-width="1.5" stroke-linecap="round"/>
<rect x="0.5" y="17" width="19" height="5" rx="1.5" fill="white"/>
<path d="M7.25635 20.5H7.6665L8.24072 19.668L8.81201 20.5H9.22217L8.43408 19.4043L9.1958 18.3438H8.78564L8.24072 19.1406L7.6958 18.3438H7.28564L8.0415 19.4014L7.25635 20.5ZM9.45068 20.5H10.8394V20.2012H9.79639V18.3438H9.45068V20.5ZM11.8325 20.5293C12.3218 20.5293 12.6323 20.2773 12.6323 19.8994C12.6323 19.6006 12.4507 19.4219 12.064 19.3311L11.7446 19.2607C11.519 19.2109 11.4253 19.1143 11.4253 18.9531C11.4253 18.7451 11.5952 18.6104 11.8735 18.6104C12.105 18.6104 12.2983 18.6807 12.4624 18.8242L12.5708 18.5605C12.4067 18.4053 12.1519 18.3145 11.8735 18.3145C11.4019 18.3145 11.0825 18.5781 11.0825 18.9707C11.0825 19.2842 11.2612 19.4717 11.6274 19.5537L11.9468 19.627C12.1929 19.6826 12.2896 19.7676 12.2896 19.9229C12.2896 20.1104 12.1431 20.2334 11.8325 20.2334C11.563 20.2334 11.3374 20.1572 11.147 20.0137L11.0386 20.2891C11.229 20.4385 11.5132 20.5293 11.8325 20.5293Z" fill="black"/>
<rect x="0.5" y="17" width="19" height="5" rx="1.5" stroke="#111827"/>
</svg>
