<svg width="16" height="17" viewBox="0 0 16 17" fill="none" xmlns="http://www.w3.org/2000/svg">
<path d="M2 2.5L14 14.5" stroke="#636871" stroke-width="1.5" stroke-linecap="round" stroke-linejoin="round"/>
<path d="M7.05598 7.55811C6.53499 8.07873 6.53469 8.92312 7.05531 9.44411C7.57593 9.96509 8.42032 9.96539 8.94131 9.44477" stroke="#636871" stroke-width="1.5" stroke-linecap="round" stroke-linejoin="round"/>
<path d="M6.03577 3.35575C5.63753 3.46968 5.40704 3.88487 5.52096 4.28311C5.63489 4.68134 6.05008 4.91183 6.44832 4.79791L6.03577 3.35575ZM8.00004 3.8335L7.99738 4.5835H8.00004V3.8335ZM14.6667 8.50016L15.3178 8.87237C15.4496 8.64178 15.4497 8.35866 15.3179 8.12804L14.6667 8.50016ZM12.4473 10.3164C12.1661 10.6206 12.1848 11.0951 12.489 11.3763C12.7932 11.6574 13.2677 11.6387 13.5488 11.3346L12.4473 10.3164ZM11.9907 12.688C12.3341 12.4564 12.4248 11.9902 12.1932 11.6468C11.9616 11.3034 11.4954 11.2128 11.152 11.4444L11.9907 12.688ZM1.33337 8.50016L0.682242 8.12797C0.550433 8.35857 0.550417 8.64167 0.6822 8.87228L1.33337 8.50016ZM4.84239 5.56018C5.18518 5.32766 5.27458 4.86128 5.04206 4.51849C4.80954 4.17569 4.34316 4.08629 4.00036 4.31881L4.84239 5.56018ZM6.44832 4.79791C6.95199 4.65382 7.47351 4.58164 7.99738 4.58349L8.0027 3.0835C7.3375 3.08115 6.67531 3.1728 6.03577 3.35575L6.44832 4.79791ZM8.00004 4.5835C10.3067 4.5835 12.3189 5.90326 14.0155 8.87228L15.3179 8.12804C13.4586 4.8744 11.0267 3.0835 8.00004 3.0835V4.5835ZM14.0156 8.12796C13.5197 8.99545 12.996 9.72272 12.4473 10.3164L13.5488 11.3346C14.1881 10.6429 14.7764 9.81954 15.3178 8.87237L14.0156 8.12796ZM11.152 11.4444C10.1865 12.0956 9.14274 12.4168 8.00004 12.4168V13.9168C9.44668 13.9168 10.7816 13.5034 11.9907 12.688L11.152 11.4444ZM8.00004 12.4168C5.69338 12.4168 3.68122 11.0971 1.98455 8.12804L0.6822 8.87228C2.54152 12.1259 4.97336 13.9168 8.00004 13.9168V12.4168ZM1.98451 8.87236C2.85818 7.34391 3.81676 6.25586 4.84239 5.56018L4.00036 4.31881C2.73398 5.1778 1.6339 6.46308 0.682242 8.12797L1.98451 8.87236Z" fill="#636871"/>
</svg>
