<svg width="18" height="18" viewBox="0 0 18 18" fill="none" xmlns="http://www.w3.org/2000/svg">
<path d="M10.5 6V4.5C10.5 3.67157 9.82843 3 9 3H3.75C2.92157 3 2.25 3.67157 2.25 4.5V13.5C2.25 14.3284 2.92157 15 3.75 15H9C9.82843 15 10.5 14.3284 10.5 13.5V12" stroke="#636871" stroke-width="1.5" stroke-linecap="round" stroke-linejoin="round"/>
<path d="M5.25 8.25C4.83579 8.25 4.5 8.58579 4.5 9C4.5 9.41421 4.83579 9.75 5.25 9.75V8.25ZM15.75 9V9.75C16.0533 9.75 16.3268 9.56727 16.4429 9.28701C16.559 9.00676 16.4948 8.68417 16.2803 8.46967L15.75 9ZM14.0303 6.21967C13.7374 5.92678 13.2626 5.92678 12.9697 6.21967C12.6768 6.51256 12.6768 6.98744 12.9697 7.28033L14.0303 6.21967ZM12.9697 10.7197C12.6768 11.0126 12.6768 11.4874 12.9697 11.7803C13.2626 12.0732 13.7374 12.0732 14.0303 11.7803L12.9697 10.7197ZM16.2803 9.53033C16.5732 9.23744 16.5732 8.76256 16.2803 8.46967C15.9874 8.17678 15.5126 8.17678 15.2197 8.46967L16.2803 9.53033ZM5.25 9.75H15.75V8.25H5.25V9.75ZM16.2803 8.46967L14.0303 6.21967L12.9697 7.28033L15.2197 9.53033L16.2803 8.46967ZM14.0303 11.7803L16.2803 9.53033L15.2197 8.46967L12.9697 10.7197L14.0303 11.7803Z" fill="#636871"/>
</svg>
