<svg width="16" height="16" viewBox="0 0 16 16" fill="none" xmlns="http://www.w3.org/2000/svg">
<path d="M6.5 9.25024C6.91144 9.67016 7.4746 9.9068 8.0625 9.9068C8.6504 9.9068 9.21356 9.67016 9.625 9.25024L12.125 6.75024C12.9879 5.88729 12.9879 4.48818 12.125 3.62524C11.2621 2.76229 9.86294 2.76229 9 3.62524L8.6875 3.93774" stroke="#111827" stroke-width="1.5" stroke-linecap="round" stroke-linejoin="round"/>
<path d="M8.99999 6.74983C8.58855 6.3299 8.02539 6.09326 7.43749 6.09326C6.84959 6.09326 6.28644 6.3299 5.87499 6.74983L3.37499 9.24983C2.51205 10.1128 2.51205 11.5119 3.37499 12.3748C4.23794 13.2378 5.63705 13.2378 6.49999 12.3748L6.81249 12.0623" stroke="#111827" stroke-width="1.5" stroke-linecap="round" stroke-linejoin="round"/>
</svg>
