<svg width="10" height="10" viewBox="0 0 10 10" fill="none" xmlns="http://www.w3.org/2000/svg">
<g clip-path="url(#clip0_464_5511)">
<path d="M7.62499 2.37897C7.46249 2.21647 7.19999 2.21647 7.03749 2.37897L4.99999 4.4123L2.96249 2.3748C2.79999 2.2123 2.53749 2.2123 2.37499 2.3748C2.21249 2.5373 2.21249 2.7998 2.37499 2.9623L4.41249 4.9998L2.37499 7.0373C2.21249 7.1998 2.21249 7.4623 2.37499 7.6248C2.53749 7.7873 2.79999 7.7873 2.96249 7.6248L4.99999 5.5873L7.03749 7.6248C7.19999 7.7873 7.46249 7.7873 7.62499 7.6248C7.78749 7.4623 7.78749 7.1998 7.62499 7.0373L5.58749 4.9998L7.62499 2.9623C7.78332 2.80397 7.78332 2.5373 7.62499 2.37897V2.37897Z" fill="white"/>
</g>
<defs>
<clipPath id="clip0_464_5511">
<rect width="10" height="10" fill="white"/>
</clipPath>
</defs>
</svg>
