<svg width="12" height="12" viewBox="0 0 12 12" fill="none" xmlns="http://www.w3.org/2000/svg">
<circle cx="6" cy="6" r="6" fill="#D9D9D9"/>
<g clip-path="url(#clip0_530_7148)">
<path d="M8.62499 3.37897C8.46249 3.21647 8.19999 3.21647 8.03749 3.37897L5.99999 5.4123L3.96249 3.3748C3.79999 3.2123 3.53749 3.2123 3.37499 3.3748C3.21249 3.5373 3.21249 3.7998 3.37499 3.9623L5.41249 5.9998L3.37499 8.0373C3.21249 8.1998 3.21249 8.4623 3.37499 8.6248C3.53749 8.7873 3.79999 8.7873 3.96249 8.6248L5.99999 6.5873L8.03749 8.6248C8.19999 8.7873 8.46249 8.7873 8.62499 8.6248C8.78749 8.4623 8.78749 8.1998 8.62499 8.0373L6.58749 5.9998L8.62499 3.9623C8.78332 3.80397 8.78332 3.5373 8.62499 3.37897Z" fill="white"/>
</g>
<defs>
<clipPath id="clip0_530_7148">
<rect width="10" height="10" fill="white" transform="translate(1 1)"/>
</clipPath>
</defs>
</svg>
