<svg width="20" height="22" viewBox="0 0 20 22" fill="none" xmlns="http://www.w3.org/2000/svg">
<path d="M11.9048 1V5.02664C11.9048 5.58261 12.3489 6.0333 12.8968 6.0333H16.8651" stroke="#111827" stroke-width="1.5" stroke-linecap="round" stroke-linejoin="round"/>
<path fill-rule="evenodd" clip-rule="evenodd" d="M14.881 19.1199H4.96032C3.86452 19.1199 2.9762 18.2185 2.9762 17.1066V3.01332C2.9762 1.90139 3.86452 1 4.96032 1H11.9048L16.8651 6.0333V17.1066C16.8651 18.2185 15.9768 19.1199 14.881 19.1199Z" stroke="#111827" stroke-width="1.5" stroke-linecap="round" stroke-linejoin="round"/>
<path d="M12.4018 8.22363L6.9454 15.3939M6.9454 8.22363L12.4018 15.3939" stroke="#111827" stroke-width="1.5" stroke-linecap="round"/>
<path d="M2 16.6001H18C18.8284 16.6001 19.5 17.2717 19.5 18.1001V20.0002C19.5 20.8286 18.8284 21.5002 18 21.5002H2C1.17157 21.5002 0.5 20.8286 0.5 20.0002V18.1001C0.5 17.2717 1.17157 16.6001 2 16.6001Z" fill="white" stroke="#111827"/>
<path d="M7.27383 19.9633H7.71271L8.26202 19.1611L8.81134 19.9633H9.2473L8.46257 18.878L9.2473 17.7927H8.81134L8.26202 18.5919L7.71271 17.7927H7.27383L8.06438 18.878L7.27383 19.9633Z" fill="#111827"/>
<path d="M9.83731 17.7927H9.46529V19.9633H10.8575V19.6389H9.83731V17.7927Z" fill="#111827"/>
<path d="M11.1307 19.4472L11.0173 19.748C11.1859 19.8984 11.4911 19.9928 11.8079 19.9928C12.2874 19.9928 12.613 19.7333 12.613 19.3558C12.613 19.0726 12.3892 18.8633 11.9939 18.7718L11.7381 18.7128C11.5434 18.6686 11.43 18.5683 11.43 18.4327C11.43 18.2115 11.5899 18.0817 11.8544 18.0817C12.0491 18.0817 12.2613 18.1554 12.4386 18.2852L12.549 18.005C12.4037 17.8546 12.1363 17.7603 11.8544 17.7603C11.3806 17.7603 11.0551 18.0316 11.0551 18.4327C11.0551 18.7246 11.276 18.9399 11.6684 19.0284C11.7992 19.0579 11.8893 19.0785 11.9241 19.0844C12.1247 19.1316 12.238 19.229 12.238 19.3558C12.238 19.5534 12.0782 19.6713 11.8079 19.6713C11.587 19.6713 11.337 19.5888 11.1307 19.4472Z" fill="#111827"/>
</svg>
