<svg width="10" height="10" viewBox="0 0 10 10" fill="none" xmlns="http://www.w3.org/2000/svg">
<path d="M9.37055 3.68039L6.56897 3.27323L5.31658 0.734255C5.28238 0.664739 5.2261 0.608465 5.15659 0.574259C4.98225 0.488192 4.77039 0.559914 4.68322 0.734255L3.43083 3.27323L0.629248 3.68039C0.552009 3.69142 0.48139 3.72784 0.427322 3.78301C0.361957 3.85019 0.325938 3.94058 0.327179 4.0343C0.328421 4.12803 0.366821 4.21743 0.433942 4.28286L2.46093 6.25909L1.98204 9.04964C1.97081 9.11455 1.978 9.18132 2.00278 9.24236C2.02756 9.3034 2.06895 9.35627 2.12225 9.39498C2.17556 9.4337 2.23864 9.4567 2.30435 9.46139C2.37006 9.46607 2.43577 9.45225 2.49403 9.42149L4.9999 8.10401L7.50577 9.42149C7.57418 9.45791 7.65363 9.47004 7.72976 9.4568C7.92176 9.4237 8.05086 9.24163 8.01776 9.04964L7.53887 6.25909L9.56586 4.28286C9.62103 4.22879 9.65744 4.15817 9.66848 4.08093C9.69827 3.88783 9.56365 3.70908 9.37055 3.68039Z" fill="#CCCCCC"/>
</svg>
