<svg width="22" height="20" viewBox="0 0 22 20" fill="none" xmlns="http://www.w3.org/2000/svg">
<path d="M16.0312 8.5083C17.2217 8.5083 18.1875 7.4445 18.1875 6.1333C18.1875 4.8221 17.2217 3.7583 16.0312 3.7583C14.8408 3.7583 13.875 4.8221 13.875 6.1333C13.875 7.4445 14.8408 8.5083 16.0312 8.5083Z" fill="#111827"/>
<path d="M19.8047 0.59082H2.19531C1.49453 0.59082 0.9375 1.21921 0.9375 1.99108V18.1906C0.9375 18.9624 1.49453 19.5908 2.19531 19.5908H19.8047C20.5055 19.5908 21.0625 18.9624 21.0625 18.1906V1.99108C21.0625 1.21921 20.5055 0.59082 19.8047 0.59082ZM15.1732 10.3729C15.0385 10.1997 14.8318 10.0661 14.5982 10.0661C14.3691 10.0661 14.2074 10.1848 14.0232 10.3481L13.1832 11.1299C13.008 11.2684 12.8688 11.3624 12.6666 11.3624C12.4734 11.3624 12.2982 11.2833 12.1725 11.1596C12.1275 11.115 12.0467 11.0309 11.9793 10.9567L9.5625 8.07702C9.38281 7.84941 9.11328 7.70592 8.8123 7.70592C8.51133 7.70592 8.23281 7.86921 8.05762 8.09186L2.375 15.6424V2.75306C2.41992 2.4166 2.65801 2.17415 2.96348 2.17415H19.032C19.342 2.17415 19.5936 2.4265 19.6115 2.7679L19.625 15.6523L15.1732 10.3729Z" fill="#111827"/>
</svg>
