<svg width="40" height="16" viewBox="0 0 40 16" fill="none" xmlns="http://www.w3.org/2000/svg">
<g clip-path="url(#clip0_416_19132)">
<path d="M11.0646 6.45027C10.4289 4.31818 8.3307 2.74609 5.83926 2.74609H0.961914V12.8499H5.83926C7.07686 12.8499 8.21472 12.4575 9.12871 11.8064C9.02316 11.4195 8.96053 11.017 8.96053 10.5986V10.3591C8.96053 8.76116 9.78869 7.34651 11.0634 6.45027M5.8381 9.76986H4.26992V5.82616H5.8381C7.00611 5.82616 7.95722 6.71116 7.95722 7.79857C7.95722 8.88598 7.00611 9.76986 5.8381 9.76986Z" fill="#618FFC"/>
<path d="M11.2666 7.79947C11.2666 7.33167 11.1924 6.88074 11.0648 6.45117C9.79008 7.34742 8.96191 8.76319 8.96191 10.36V10.6007C8.96191 11.0179 9.02455 11.4216 9.1301 11.8084C10.4269 10.884 11.2678 9.4334 11.2678 7.8006" fill="#3854C6"/>
<path d="M16.0185 5.75473C15.986 5.74349 15.9547 5.73224 15.921 5.72212C15.9118 5.71987 15.9013 5.7165 15.8932 5.71313C15.87 5.70525 15.8468 5.69738 15.8225 5.69064C15.3179 5.54107 14.7832 5.45898 14.2264 5.45898C13.0399 5.45898 11.9461 5.8312 11.0646 6.45081C11.1933 6.88038 11.2664 7.33244 11.2664 7.79912C11.2664 9.43192 10.4266 10.8837 9.12988 11.8069C9.70983 13.9255 11.7721 15.4998 14.2264 15.4998C15.3771 15.4998 16.4407 15.1512 17.3071 14.5642C17.8036 14.9814 18.5041 15.2513 19.4924 15.3896V10.3597C19.4924 10.2967 19.4842 10.2371 19.4819 10.1752C19.4819 10.1685 19.4819 10.1617 19.4819 10.155V10.1471C19.4819 10.137 19.4796 10.1269 19.4796 10.1179C17.4904 9.52076 16.0417 7.79574 16.0196 5.75361M16.1843 10.5992C16.1843 11.6022 15.3063 12.4187 14.2276 12.4187C13.1489 12.4187 12.2709 11.6022 12.2709 10.5992V10.3585C12.2709 9.35545 13.1489 8.53793 14.2276 8.53793C15.3063 8.53793 16.1843 9.35545 16.1843 10.3585V10.5992Z" fill="#ADC900"/>
<path d="M25.9151 3.77911C25.9151 3.77911 25.9174 3.77686 25.9186 3.77686C25.9198 3.77573 25.9209 3.77461 25.9232 3.77348C25.9453 3.75887 25.9673 3.74312 25.987 3.7285V0.5H22.679V5.70766C22.679 6.56905 21.9263 7.26737 21.0018 7.26737C20.0774 7.26737 19.3258 6.56905 19.3258 5.70766V0.5H16.0166V5.72228C16.0166 5.73353 16.0166 5.74365 16.0166 5.75489C17.9617 6.41274 19.371 8.10739 19.4777 10.1192C19.5114 10.1293 19.5427 10.1394 19.5763 10.1484C19.5856 10.1518 19.596 10.1529 19.6053 10.1563C19.6285 10.163 19.6505 10.1698 19.6761 10.1754C20.0983 10.2845 20.5425 10.3474 21.0018 10.3474C22.1408 10.3474 23.1894 9.98534 24.0291 9.38485C24.0628 9.36123 24.0941 9.33649 24.1277 9.31176V7.1358C24.1277 5.76951 24.8295 4.5539 25.914 3.77911" fill="#FEBC00"/>
<path d="M34.4877 2.90039C33.3858 2.90039 32.3732 3.26811 31.5845 3.8776C30.7958 3.26811 29.7844 2.90039 28.6813 2.90039C27.7139 2.90039 26.8185 3.18489 26.0808 3.66507C26.0495 3.68643 26.0205 3.7078 25.9892 3.72916V5.70945C25.9892 7.13647 25.2898 8.41167 24.1972 9.26294C24.1972 9.26294 24.1972 9.26294 24.1948 9.26406C24.174 9.28093 24.1519 9.29667 24.1299 9.31354V12.8535H27.4286V7.13647C27.4286 6.49324 27.9912 5.97146 28.6825 5.97146C29.3738 5.97146 29.9363 6.49324 29.9363 7.13647V12.8524H33.235V7.13647C33.235 6.49324 33.7976 5.97146 34.4889 5.97146C35.1802 5.97146 35.7427 6.49324 35.7427 7.13647V12.8524H39.0403V7.13647C39.0403 4.80083 36.9989 2.90039 34.4889 2.90039" fill="#F2685E"/>
<path d="M24.1972 9.26004C25.2886 8.40878 25.9892 7.13357 25.9892 5.70767V3.72852C25.9683 3.74426 25.9451 3.75775 25.9242 3.7735C25.9219 3.77462 25.9208 3.77575 25.9196 3.77799C25.9184 3.77799 25.9173 3.78024 25.9161 3.78024C24.8316 4.55504 24.1299 5.77065 24.1299 7.13694V9.31177C24.1519 9.2949 24.174 9.27916 24.1948 9.26229C24.1972 9.26229 24.1972 9.26229 24.1983 9.26116" fill="#DD3343"/>
<path d="M16.0186 5.75586C16.0418 7.79687 17.4905 9.52301 19.4785 10.1201C19.373 8.10836 17.9637 6.4137 16.0186 5.75586Z" fill="#5C9236"/>
</g>
<defs>
<clipPath id="clip0_416_19132">
<rect width="38.0769" height="15" fill="white" transform="translate(0.961914 0.5)"/>
</clipPath>
</defs>
</svg>
