<svg width="54" height="16" viewBox="0 0 54 16" fill="none" xmlns="http://www.w3.org/2000/svg">
<path d="M42.8993 6.72656H41.6904V13.4525H42.9481V10.3734H43.465C43.756 10.3734 43.8842 10.1475 43.8842 10.1475L44.218 9.53497C44.3075 9.2928 43.9921 9.30908 43.9921 9.30908H42.9176L42.9013 6.72859L42.8993 6.72656Z" fill="#0D0D0D"/>
<path d="M39.5477 7.94346H40.4207V7.02767H34.924V7.94346H35.8072V12.0218H34.8182V12.9518H40.6405V12.0218H39.5477V7.94346ZM38.3083 12.0218H37.0364V7.94346H38.3083V12.0218ZM21.6085 13.3222H22.8376V6.72852H21.6085V13.3222ZM20.1574 9.12788C20.1574 7.85188 18.9913 6.79974 17.6034 6.79974C16.2155 6.79974 15.0596 7.85188 15.0596 9.12788C15.0596 10.4039 16.2257 11.456 17.6034 11.456C18.9812 11.456 20.1574 10.414 20.1574 9.12788ZM16.2888 9.12788C16.2888 8.37286 16.8769 7.84985 17.6034 7.84985C18.3299 7.84985 18.916 8.37083 18.916 9.12788C18.916 9.88493 18.3381 10.4161 17.6034 10.4161C16.8688 10.4161 16.2888 9.87475 16.2888 9.12788ZM25.9534 11.0775V10.2858H29.8587V9.3558H25.9534V7.99637H29.8587V6.98901H24.7954V11.3522C24.8198 11.7084 25.0477 12.1479 25.2309 12.3575C25.7824 12.9864 26.4967 12.907 26.4967 12.907H29.8811V11.9159H26.7531C26.0144 11.8732 25.9513 11.0775 25.9513 11.0775H25.9534ZM31.7411 9.31103H30.6666C30.6666 9.31103 30.3227 9.28254 30.4407 9.53693L30.7745 10.1495C30.7745 10.1495 30.9027 10.3754 31.1937 10.3754H31.7106V13.4545H32.9683V6.72852H31.7594L31.7432 9.309L31.7411 9.31103ZM52.1672 12.5265V8.73307C52.1408 8.32198 51.8762 7.81322 51.6645 7.57104C51.0276 6.84452 50.2034 6.9361 50.2034 6.9361H45.7689V7.95567H49.9062C50.761 8.00451 50.8322 8.77784 50.8322 8.77784V9.32121H45.7954V10.3286H50.8322V12.5061H45.0078V13.4911H53.1257V12.5265H52.1672ZM17.813 13.4056L17.7662 12.7544H16.5798V13.5684C16.6551 14.7203 17.3958 15.166 17.4182 15.1863C17.7784 15.5221 18.6759 15.4997 18.6759 15.4997H22.7969V14.4761H19.0036C17.8456 14.4923 17.8171 13.4056 17.8171 13.4056H17.813Z" fill="#0D0D0D"/>
<path d="M6.6716 2.82521C6.2076 2.57897 5.73953 2.24521 5.4709 1.78122C5.37322 1.61231 5.24094 1.3274 5.28978 1.12999C5.35287 0.87968 5.65406 0.727045 5.87995 0.859326C6.12416 0.999746 6.29918 1.27448 6.39279 1.52683C6.58613 0.193854 8.12261 0.167402 7.66472 1.39659C7.41237 2.07427 6.8629 2.1455 6.67363 2.82521H6.6716Z" fill="#EA0029"/>
<path d="M2.10236 7.97369C1.46131 7.49748 0.665594 6.81776 0.92405 6.08921C1.00342 5.86331 1.22524 5.78598 1.42264 5.8857C1.58749 5.96914 1.70756 6.12787 1.78489 6.29068C1.82763 6.38226 1.91513 6.57152 1.94159 6.6631C1.96601 6.52471 1.97822 6.43924 2.06369 6.2744C2.1919 6.02205 2.5399 5.39728 3.15653 5.58858C3.31934 5.63945 3.91562 6.11566 3.08123 6.95208C2.82888 7.20443 2.21633 7.49951 2.10236 7.97572V7.97369Z" fill="#EA0029"/>
<path d="M5.78632 9.96406C6.80997 9.42273 6.99719 7.55859 6.62681 7.06814C6.19944 6.47593 5.58688 7.08239 5.70288 8.14266C4.73011 6.4393 2.23918 7.20449 3.85503 8.60666C4.45131 9.12357 5.50955 9.1887 5.78836 9.96406H5.78632Z" fill="#EA0029"/>
<path d="M8.31532 4.20861C7.66409 3.61029 7.88388 2.19591 8.25426 1.90693C8.6857 1.55282 9.01945 2.11857 8.73047 2.87969C9.77854 1.80924 11.4717 2.85731 10.0085 3.57976C9.46921 3.84636 8.67349 3.68966 8.31735 4.21064L8.31532 4.20861Z" fill="#EA0029"/>
<path d="M7.73307 7.06598C6.82339 6.61012 6.43672 5.42367 6.64837 5.00444C6.88851 4.50177 7.48886 4.8742 7.54584 5.68619C7.91419 4.1436 10.0205 4.61574 8.99889 5.8897C8.6224 6.3598 7.93861 6.54703 7.73103 7.06801L7.73307 7.06598Z" fill="#EA0029"/>
<path d="M11.5368 7.30164C10.7899 6.41435 9.92297 5.04271 10.3931 4.20629C10.8021 3.52657 11.663 4.10046 11.4859 5.30523C12.4139 3.37191 14.9883 4.18187 13.5291 5.84249C12.7538 6.72572 11.7586 6.6728 11.5368 7.30164Z" fill="#EA0029"/>
<path d="M5.46222 5.84411C6.28846 5.1013 6.03204 3.32468 5.57414 2.95429C5.03892 2.5025 4.60952 3.20867 4.96159 4.1672C3.66321 2.80776 1.5223 4.098 3.34777 5.026C4.02138 5.36993 5.0206 5.18474 5.46222 5.84411Z" fill="#EA0029"/>
<path d="M9.22332 9.27914C8.78578 8.20665 8.70641 6.70476 9.55708 6.66406C9.93357 6.66406 10.5156 7.12195 10.0618 8.2209C10.6275 7.65515 11.5474 7.72638 11.5718 8.36946C11.5718 9.00441 10.829 9.30764 10.2816 9.26286C9.63441 9.21199 9.53673 9.08174 9.22332 9.27914Z" fill="#EA0029"/>
<path d="M7.72579 8.45898C6.50271 10.4208 6.17506 12.9524 6.14453 15.4495C6.61463 15.5126 6.96263 15.5004 7.30453 15.4495C7.18853 14.4767 7.17632 13.8255 7.17225 12.9972C7.17225 12.7571 7.1926 12.5007 7.20684 12.2605C7.24958 11.5421 7.39407 10.7993 7.622 10.1176C7.71968 9.82453 7.78888 9.64544 7.84789 9.49077C7.99849 9.09393 8.18775 8.73372 8.41161 8.37351C8.16537 8.3145 7.87842 8.22698 7.74207 8.44067L7.72986 8.45898H7.72579Z" fill="#54565A"/>
</svg>
