<svg width="36" height="18" viewBox="0 0 36 18" fill="none" xmlns="http://www.w3.org/2000/svg">
<path d="M15.7603 10.9629C14.9249 10.9629 14.187 11.2344 13.6892 11.7426C13.1219 12.303 12.8086 13.1871 12.8086 14.2279C12.8086 15.2687 13.1219 16.1528 13.6892 16.7132C14.187 17.2214 14.9215 17.4999 15.7603 17.4999C16.5992 17.4999 17.3406 17.2214 17.8384 16.7132C18.3988 16.1493 18.7086 15.2687 18.7086 14.2279C18.7086 13.1871 18.3953 12.303 17.8384 11.7426C17.3406 11.2344 16.5957 10.9629 15.7603 10.9629ZM16.9577 16.0344C16.6827 16.3825 16.2511 16.5809 15.7603 16.5809C15.2695 16.5809 14.8344 16.3825 14.5699 16.0344C14.2671 15.655 14.1035 15.025 14.1035 14.2314C14.1035 13.4378 14.2671 12.8147 14.5699 12.4248C14.8344 12.0768 15.273 11.8888 15.7603 11.8888C16.2476 11.8888 16.6827 12.0768 16.9577 12.4248C17.264 12.8147 17.4207 13.4343 17.4207 14.2314C17.4207 15.0285 17.264 15.6585 16.9577 16.0344Z" fill="#003477"/>
<path d="M31.9218 11.7426C31.424 11.2344 30.6792 10.9629 29.8438 10.9629C29.0084 10.9629 28.2739 11.2344 27.7692 11.7426C27.2053 12.303 26.8955 13.1871 26.8955 14.2279C26.8955 15.2687 27.2053 16.1528 27.7692 16.7132C28.2704 17.2214 29.0049 17.4999 29.8438 17.4999C30.6826 17.4999 31.4206 17.2214 31.9218 16.7132C32.4822 16.1493 32.792 15.2687 32.792 14.2279C32.792 13.1871 32.4822 12.303 31.9218 11.7426ZM31.0412 16.0344C30.7662 16.3825 30.3346 16.5809 29.8438 16.5809C29.353 16.5809 28.9179 16.3825 28.6533 16.0344C28.3505 15.655 28.1869 15.025 28.1869 14.2314C28.1869 13.4378 28.3505 12.8147 28.6533 12.4248C28.9179 12.0768 29.3599 11.8888 29.8438 11.8888C30.3276 11.8888 30.7662 12.0768 31.0412 12.4248C31.344 12.8147 31.5041 13.4343 31.5041 14.2314C31.5041 15.0285 31.3475 15.6585 31.0412 16.0344Z" fill="#003477"/>
<path d="M9.89553 17.3546C9.82243 17.2885 9.73541 17.1388 9.73541 16.9161V14.65L11.8517 11.1031H10.4037C10.5082 11.2075 10.5186 11.3746 10.3933 11.573L9.2481 13.5571C8.28391 11.8097 8.28391 11.761 8.10987 11.4442C7.97412 11.204 7.85925 11.0996 7.60167 11.0996H6.45996C6.55046 11.1831 6.64444 11.3085 6.83937 11.6357L8.52757 14.6292V16.9126C8.52757 17.1353 8.44055 17.285 8.36745 17.3512H9.89553V17.3546Z" fill="#003477"/>
<path d="M20.7275 17.3551C20.8006 17.2889 20.8877 17.1393 20.8877 16.9165V11.5386C20.8877 11.3158 20.8006 11.1662 20.7275 11.1035H22.7986C23.7941 11.1035 24.6609 11.5839 24.6609 12.5132C24.6609 12.9066 24.4799 13.4635 24.0204 13.7106C24.5773 13.9265 25.1691 14.4381 25.1691 15.3118C25.1691 15.9593 24.8488 16.5266 24.4137 16.8503C24.0134 17.1532 23.554 17.3585 22.7986 17.3585H20.7275M22.099 13.467C22.3252 13.4948 22.7847 13.467 22.9831 13.3591C23.1815 13.2547 23.4078 13.105 23.4078 12.7117C23.4078 12.3183 23.0771 12.005 22.6002 12.005C22.4192 12.005 22.273 12.0155 22.099 12.0677V13.467ZM23.453 16.3073C23.8115 16.0776 23.8951 15.7434 23.8951 15.3919C23.8951 14.7062 23.2929 14.3894 22.7116 14.3894C22.5863 14.3894 22.2869 14.3929 22.099 14.4242V16.4292C22.4993 16.5406 23.1363 16.5127 23.453 16.3073Z" fill="#003477"/>
<path d="M1.00875 16.9161C1.00875 17.1388 0.92173 17.2885 0.848633 17.3546H2.37671C2.30361 17.2885 2.21659 17.1388 2.21659 16.9161V14.476L3.99181 17.01C4.15541 17.2502 4.2842 17.3546 4.54178 17.3546H5.76703C5.66608 17.2711 5.55818 17.1458 5.32496 16.8186L3.32001 13.9782L5.37021 11.0996H3.86302C3.9396 11.2006 3.95004 11.3293 3.80385 11.5765L2.21311 13.8669V11.5347C2.21311 11.3119 2.30013 11.1623 2.37323 11.0996H0.848633C0.92173 11.1657 1.00875 11.3154 1.00875 11.5347V16.9126V16.9161Z" fill="#003477"/>
<path d="M34.7548 2.53976C34.1839 1.96194 33.2406 2.06289 32.6837 2.65115C31.9597 3.40996 31.3958 3.69191 30.7275 3.66406C29.7911 3.62229 29.3316 2.90176 28.8478 1.98631C28.3501 1.03257 27.5808 0.5 26.6236 0.5C25.1199 0.5 24.2148 1.71829 24.2148 3.07581C24.2148 5.16778 25.6872 6.41739 26.7036 6.94647C27.5495 7.38506 28.4928 7.56954 29.3282 7.59043C29.2794 8.08818 29.1298 8.74954 28.9696 9.21597H30.6926C30.5221 8.74954 30.3724 8.03597 30.3272 7.53473C32.8508 7.20754 34.0482 6.06235 34.7025 4.96937C34.9949 4.4925 35.1551 3.99474 35.1516 3.5492C35.1516 3.15934 35.0263 2.80082 34.7548 2.5328M26.641 3.84159C26.1537 3.87291 25.736 3.50395 25.7046 3.01663C25.6733 2.5328 26.0423 2.11162 26.5296 2.08029C27.0134 2.04896 27.4311 2.42141 27.4624 2.90525C27.4938 3.39256 27.1248 3.81026 26.641 3.8381V3.84159Z" fill="#45B035"/>
</svg>
