<svg width="54" height="20" viewBox="0 0 54 20" fill="none" xmlns="http://www.w3.org/2000/svg">
<g clip-path="url(#clip0_712_26090)">
<path d="M30.731 14.1418C30.3308 13.8819 29.7879 13.9838 29.5187 14.3715C27.7158 16.966 26.1167 17.806 22.8025 17.806C21.4489 17.806 19.9718 17.5935 18.7803 16.9962C17.6424 16.4233 16.8733 15.3665 16.1147 14.3643C15.8306 13.9882 15.2832 13.9049 14.892 14.1805C14.5022 14.4548 14.3758 14.8338 14.6198 15.2359C15.4409 16.5956 16.4553 17.7227 17.8343 18.4162C19.2563 19.1298 21.1901 19.549 22.804 19.4945C26.435 19.3753 29.1617 18.1448 30.9734 15.3105C31.2263 14.9142 31.1356 14.3988 30.7325 14.1403L30.731 14.1418Z" fill="#008EC4"/>
<path d="M17.252 12.9923H22.1964L22.2783 11.8394H20.1868C20.1868 11.8394 22.1518 10.4122 22.5386 9.44445C22.9015 8.54563 22.4984 7.33525 21.4735 6.96481C20.7089 6.70493 19.693 6.90738 19.0518 7.3453C18.5163 7.78179 18.2173 8.4121 17.9704 9.00796H19.5397C19.5278 8.65763 19.6632 8.08331 20.1585 8.00434C20.5051 7.92967 20.9276 8.04741 21.0689 8.38913C21.2519 8.81269 21.1061 9.35399 20.8577 9.69571C19.7867 10.9276 17.2534 12.9938 17.2534 12.9938L17.252 12.9923Z" fill="#221E1F"/>
<path d="M26.2351 7.10547L23.0399 10.8759L22.8867 11.7747H25.9837L25.7695 13.0253H27.1588L27.3731 11.7747H28.154L28.337 10.705H27.556L28.1704 7.10547H26.2366H26.2351ZM26.1652 10.705H24.7119L26.5609 8.38621L26.1652 10.705Z" fill="#221E1F"/>
<path d="M21.5524 4.987C22.018 5.11192 22.5 4.84342 22.6279 4.39545L23.4267 1.56692C23.5546 1.11751 23.2794 0.652309 22.8138 0.530265C22.3467 0.406786 21.8648 0.67241 21.7384 1.12182L20.9396 3.95179C20.8116 4.40119 21.0868 4.86639 21.5524 4.987Z" fill="#B8282E"/>
<path d="M25.8483 4.987C26.3139 5.11192 26.7958 4.84342 26.9223 4.39545L27.7226 1.56692C27.8475 1.11751 27.5738 0.652309 27.1067 0.530265C26.6411 0.406786 26.1592 0.67241 26.0328 1.12182L25.234 3.95179C25.1075 4.40119 25.3812 4.86639 25.8483 4.987Z" fill="#B8282E"/>
<path d="M31.6584 11.3892C31.2657 11.1221 30.702 11.2456 30.4015 11.662C30.0995 12.0784 30.1709 12.6326 30.5651 12.8968C30.9563 13.161 31.5201 13.0389 31.8221 12.6225C32.124 12.2062 32.0511 11.6519 31.6599 11.3892H31.6584Z" fill="#849DAA"/>
<path d="M14.8873 8.26408L15.6162 7.31501C14.8337 6.71771 13.7345 6.67464 12.7869 6.99339C11.9643 7.26906 11.4764 7.93384 11.3931 8.76804C11.3515 9.28637 11.524 9.77311 11.9762 10.0919C12.4284 10.4077 12.9937 10.211 13.4875 10.5269C13.9814 10.8457 13.7345 11.4257 13.3239 11.6641C12.6233 12.1005 11.8007 11.7603 11.347 11.163L10.5244 12.3561C10.9766 12.7136 11.5121 12.873 12.0893 12.9534C13.1142 13.0956 14.1867 12.8342 14.8873 12.0388C15.1744 11.6813 15.875 10.1033 14.447 9.4601C13.9026 9.21745 13.434 9.33088 13.1052 8.85419C12.9401 8.57708 13.0353 8.26551 13.2406 8.06593C13.7345 7.70698 14.5154 7.78882 14.8873 8.26551V8.26408Z" fill="#849DAA"/>
<path d="M10.4168 8.19706L10.6265 7.00391H7.07134L6.13867 12.8491H9.56441L9.77415 11.6545H7.84187L8.00847 10.4843H9.93182L10.1431 9.29114H8.2316L8.38333 8.19706H10.4168Z" fill="#849DAA"/>
<path d="M43.1674 6.78402C42.2317 6.62321 41.2128 6.85724 40.3738 7.42582C39.5349 7.99296 38.9577 8.83578 38.7941 9.73747C38.6543 10.4956 38.8164 11.2364 39.2463 11.8309C39.6777 12.4253 40.3441 12.8244 41.128 12.958C42.0637 13.1173 43.0826 12.8847 43.9216 12.3176C44.7605 11.7505 45.3362 10.9076 45.5013 10.0031C45.534 9.82792 45.5504 9.65275 45.5504 9.47902C45.5504 8.91044 45.3778 8.36627 45.0476 7.91256C44.6177 7.31814 43.9498 6.91898 43.1659 6.78545L43.1674 6.78402ZM44.1239 9.76762C44.0227 10.3204 43.6583 10.8445 43.1198 11.2077C42.5813 11.571 41.9461 11.7246 41.372 11.6284C41.0804 11.5767 40.6714 11.4375 40.3947 11.0555C40.118 10.6765 40.121 10.2572 40.173 9.97437C40.2742 9.42015 40.6386 8.89465 41.1771 8.53139C41.7141 8.16957 42.3522 8.01737 42.9234 8.11501C43.2165 8.16526 43.627 8.30597 43.9022 8.68502C44.1789 9.06407 44.1759 9.48333 44.1239 9.76762Z" fill="#849DAA"/>
<path d="M34.873 7.42668C34.034 7.99383 33.4703 8.80075 33.3037 9.70531C33.1668 10.4605 33.2814 11.2603 33.7112 11.8533C34.1426 12.4463 34.8462 12.8239 35.6287 12.9574C36.2326 13.0593 36.8692 12.9804 37.4732 12.7593L37.7156 11.2172C37.2872 11.5632 36.5896 11.7729 35.8711 11.6508C35.5781 11.6006 35.1705 11.4613 34.8938 11.0779C34.6157 10.6989 34.5978 10.2121 34.6484 9.92929C34.748 9.37507 35.0336 8.85244 35.5706 8.48774C36.1076 8.12448 36.6342 8.01967 37.2054 8.11587C37.4464 8.15607 37.8406 8.33985 38.1262 8.61409L38.3478 7.21131C38.15 7.06343 37.9209 6.93995 37.6651 6.89687C36.7294 6.7375 35.712 6.85667 34.873 7.42525V7.42668Z" fill="#849DAA"/>
<path d="M51.8933 6.95508L50.0592 10.111L49.2307 6.95508H47.7848L45.7246 12.8447H47.2017L48.42 9.36579L49.2842 12.8447H50.0771L52.1001 9.36292V12.8447H53.4998V6.95508H51.8933Z" fill="#849DAA"/>
<path d="M4.64718 6.96875L3.17901 8.57972L2.26419 6.96875H0.5L2.27758 9.84897L1.75695 12.8541H3.20876L3.72046 9.89061L6.39054 6.96875H4.64718Z" fill="#849DAA"/>
</g>
<defs>
<clipPath id="clip0_712_26090">
<rect width="53" height="19" fill="white" transform="translate(0.5 0.5)"/>
</clipPath>
</defs>
</svg>
