<svg width="46" height="46" viewBox="0 0 46 46" fill="none" xmlns="http://www.w3.org/2000/svg">
<mask id="path-1-outside-1_591_24539" maskUnits="userSpaceOnUse" x="0" y="0" width="46" height="46" fill="black">
<rect fill="white" width="46" height="46"/>
<path d="M5.94007 35.2912C6.4797 36.9575 8.17003 38.1258 10.1462 38.1258C12.8616 38.1258 14.9511 35.9099 14.4607 33.4746C15.1137 33.2626 15.7765 33.0359 16.4467 32.7943C17.0455 36.6641 18.8713 44.9979 22.7818 44.9979C27.833 44.9979 29.4741 31.7689 29.7377 26.6075C31.4774 25.6215 33.1184 24.6134 34.6239 23.6077C35.479 24.1919 36.2921 24.7761 37.0609 25.3627C36.536 26.0135 36.2256 26.8121 36.2256 27.6748C36.2256 29.6343 37.8494 31.3129 40.0029 31.5816C40.6855 31.6654 40.8013 30.6425 40.1311 30.5587C38.4925 30.3541 37.258 29.1143 37.258 27.6748C37.258 26.0677 38.7635 24.7613 40.614 24.7613C42.4645 24.7613 43.97 26.0677 43.97 27.6748C43.97 28.5547 43.5167 29.3805 42.7282 29.9375C42.4941 30.1027 42.4473 30.428 42.605 30.6548C43.4945 31.907 43.7458 32.8485 43.3491 33.4549C42.6493 34.5296 39.2563 34.9708 32.0022 32.676C31.3517 32.4689 31.0437 33.4549 31.6917 33.6595C34.1311 34.431 37.6843 35.3775 40.4465 35.3775C42.159 35.3775 43.5659 35.0127 44.214 34.0193C44.8103 33.1049 44.6402 31.9119 43.7162 30.4625C44.5368 29.7255 45 28.7322 45 27.6723C45 25.4958 43.0312 23.7261 40.614 23.7261C39.5495 23.7261 38.5738 24.0687 37.8149 24.6381C37.0954 24.0859 36.3389 23.5338 35.543 22.9817C38.6403 20.8446 46.2591 15.1089 44.214 11.9687C41.5947 7.95092 27.2368 13.7705 22.7842 15.8212C20.9658 14.9832 19.172 14.2289 17.4348 13.5708C17.5777 12.6194 17.7428 11.7024 17.9301 10.82C20.5321 11.0542 22.7547 9.208 22.7547 6.89349C22.7547 6.17868 22.5403 5.4762 22.1337 4.86737C21.7567 4.30046 20.8968 4.8723 21.2762 5.43922C21.5695 5.88043 21.7247 6.38327 21.7247 6.89349C21.7247 8.50059 20.2192 9.80696 18.3687 9.80696C16.5182 9.80696 15.0127 8.50059 15.0127 6.89349C15.0127 4.78603 17.5235 3.37613 19.7313 4.22897C19.7313 4.22897 19.7313 4.22897 19.7338 4.22897C19.9531 4.31278 20.2167 4.23637 20.3522 4.02193C20.9214 3.10993 21.806 2.02292 22.7818 2.02292C24.6766 2.02292 26.5665 5.53289 27.7123 11.1799C27.8503 11.8553 28.8581 11.6433 28.7226 10.9753C27.4388 4.63814 25.2729 1 22.7842 1C21.705 1 20.6701 1.71974 19.7042 3.14197C19.2754 3.01872 18.827 2.9571 18.3687 2.9571C15.949 2.9571 13.9827 4.72688 13.9827 6.90335C13.9827 8.62137 15.2122 10.0855 16.9198 10.6253C16.7424 11.4584 16.5847 12.3211 16.4467 13.2134C12.9478 11.944 3.3898 8.85553 1.3545 11.9785C-1.28202 16.0258 11.5113 24.1623 15.8283 26.6124C15.9194 28.3945 16.0771 30.1175 16.2964 31.7541C15.5597 32.0228 14.8303 32.2742 14.1158 32.5059C13.4135 31.1675 11.8981 30.2382 10.1462 30.2382C8.75647 30.2382 7.43575 30.8397 6.61276 31.8453C6.18155 32.3728 6.9799 33.026 7.41111 32.4985C8.0419 31.7295 9.06448 31.2686 10.1487 31.2686C11.9991 31.2686 13.5047 32.5749 13.5047 34.182C13.5047 35.7891 11.9991 37.0955 10.1487 37.0955C8.49282 37.0955 7.10064 36.0676 6.83698 34.6503C6.79017 34.394 6.54623 34.2091 6.28504 34.2313C4.05262 34.431 2.68508 34.1722 2.22184 33.4598C1.5393 32.4123 2.83046 29.6196 8.72197 25.205C9.26653 24.7958 8.65052 23.9701 8.1035 24.3793C4.83126 26.8318 -0.392501 31.34 1.3545 34.0243C2.22184 35.3553 4.34091 35.3997 5.94007 35.2937V35.2912ZM16.8903 27.1991C18.3711 28.0125 19.8865 28.7963 21.5645 29.5974C20.1034 30.2555 18.6718 30.852 17.2771 31.3844C17.1071 30.0706 16.9765 28.6706 16.8903 27.1966V27.1991ZM22.7842 43.9675C20.6898 43.9675 18.487 39.585 17.4225 32.4344C19.1621 31.7788 20.9535 31.0221 22.7892 30.1742C24.5978 31.0073 26.3891 31.7591 28.1509 32.427C27.0864 39.5825 24.8836 43.97 22.7867 43.97L22.7842 43.9675ZM28.2938 31.377C26.8844 30.8372 25.4553 30.2432 24.0138 29.5974C25.7386 28.7692 27.2392 27.9903 28.6807 27.2015C28.5944 28.673 28.4638 30.0682 28.2938 31.3795V31.377ZM29.792 25.3898C29.8437 23.8419 29.8486 22.2866 29.792 20.5957C31.1718 21.3869 32.4753 22.1855 33.6975 22.9866C32.4728 23.7901 31.1644 24.5962 29.792 25.3898ZM43.3516 12.538C44.8916 14.9018 37.1052 20.682 34.6289 22.3679C33.1209 21.3647 31.4921 20.3689 29.7427 19.383C29.654 17.6206 29.4963 15.9075 29.2745 14.2585C36.8169 11.5053 42.3265 10.963 43.354 12.5405L43.3516 12.538ZM28.2815 14.6258C28.4564 15.9716 28.5895 17.3642 28.6757 18.7889C27.047 17.8991 25.5218 17.1227 24.0113 16.4005C25.4848 15.7399 26.914 15.1483 28.2815 14.6258ZM17.2894 14.6258C18.657 15.1483 20.0861 15.7399 21.5621 16.4029C19.9604 17.1695 18.4574 17.941 16.8952 18.7963C16.9814 17.3618 17.1145 15.9691 17.2894 14.6282V14.6258ZM16.8336 20.0066C18.7481 18.9393 20.6947 17.9386 22.7867 16.9625C24.822 17.9114 26.8179 18.9344 28.7374 20.0016C28.8187 21.9316 28.8285 23.8986 28.7423 25.9863C26.8376 27.0512 24.8614 28.0642 22.7916 29.0354C20.6775 28.047 18.7605 27.0635 16.8311 25.9863C16.7498 24.0292 16.7473 22.0401 16.8336 20.0066ZM11.8858 22.994C13.1227 22.1831 14.4213 21.3844 15.779 20.6031C15.7248 22.2644 15.7272 23.7926 15.779 25.3874C14.409 24.5962 13.1055 23.7951 11.8858 22.994ZM15.8307 19.3854C14.1158 20.3566 12.4846 21.3549 10.9544 22.3729C8.49282 20.7017 0.681819 14.8969 2.21691 12.538C3.24442 10.9605 8.75401 11.5028 16.294 14.256C16.0747 15.8952 15.917 17.6132 15.8258 19.3879L15.8307 19.3854Z"/>
</mask>
<path d="M5.94007 35.2912C6.4797 36.9575 8.17003 38.1258 10.1462 38.1258C12.8616 38.1258 14.9511 35.9099 14.4607 33.4746C15.1137 33.2626 15.7765 33.0359 16.4467 32.7943C17.0455 36.6641 18.8713 44.9979 22.7818 44.9979C27.833 44.9979 29.4741 31.7689 29.7377 26.6075C31.4774 25.6215 33.1184 24.6134 34.6239 23.6077C35.479 24.1919 36.2921 24.7761 37.0609 25.3627C36.536 26.0135 36.2256 26.8121 36.2256 27.6748C36.2256 29.6343 37.8494 31.3129 40.0029 31.5816C40.6855 31.6654 40.8013 30.6425 40.1311 30.5587C38.4925 30.3541 37.258 29.1143 37.258 27.6748C37.258 26.0677 38.7635 24.7613 40.614 24.7613C42.4645 24.7613 43.97 26.0677 43.97 27.6748C43.97 28.5547 43.5167 29.3805 42.7282 29.9375C42.4941 30.1027 42.4473 30.428 42.605 30.6548C43.4945 31.907 43.7458 32.8485 43.3491 33.4549C42.6493 34.5296 39.2563 34.9708 32.0022 32.676C31.3517 32.4689 31.0437 33.4549 31.6917 33.6595C34.1311 34.431 37.6843 35.3775 40.4465 35.3775C42.159 35.3775 43.5659 35.0127 44.214 34.0193C44.8103 33.1049 44.6402 31.9119 43.7162 30.4625C44.5368 29.7255 45 28.7322 45 27.6723C45 25.4958 43.0312 23.7261 40.614 23.7261C39.5495 23.7261 38.5738 24.0687 37.8149 24.6381C37.0954 24.0859 36.3389 23.5338 35.543 22.9817C38.6403 20.8446 46.2591 15.1089 44.214 11.9687C41.5947 7.95092 27.2368 13.7705 22.7842 15.8212C20.9658 14.9832 19.172 14.2289 17.4348 13.5708C17.5777 12.6194 17.7428 11.7024 17.9301 10.82C20.5321 11.0542 22.7547 9.208 22.7547 6.89349C22.7547 6.17868 22.5403 5.4762 22.1337 4.86737C21.7567 4.30046 20.8968 4.8723 21.2762 5.43922C21.5695 5.88043 21.7247 6.38327 21.7247 6.89349C21.7247 8.50059 20.2192 9.80696 18.3687 9.80696C16.5182 9.80696 15.0127 8.50059 15.0127 6.89349C15.0127 4.78603 17.5235 3.37613 19.7313 4.22897C19.7313 4.22897 19.7313 4.22897 19.7338 4.22897C19.9531 4.31278 20.2167 4.23637 20.3522 4.02193C20.9214 3.10993 21.806 2.02292 22.7818 2.02292C24.6766 2.02292 26.5665 5.53289 27.7123 11.1799C27.8503 11.8553 28.8581 11.6433 28.7226 10.9753C27.4388 4.63814 25.2729 1 22.7842 1C21.705 1 20.6701 1.71974 19.7042 3.14197C19.2754 3.01872 18.827 2.9571 18.3687 2.9571C15.949 2.9571 13.9827 4.72688 13.9827 6.90335C13.9827 8.62137 15.2122 10.0855 16.9198 10.6253C16.7424 11.4584 16.5847 12.3211 16.4467 13.2134C12.9478 11.944 3.3898 8.85553 1.3545 11.9785C-1.28202 16.0258 11.5113 24.1623 15.8283 26.6124C15.9194 28.3945 16.0771 30.1175 16.2964 31.7541C15.5597 32.0228 14.8303 32.2742 14.1158 32.5059C13.4135 31.1675 11.8981 30.2382 10.1462 30.2382C8.75647 30.2382 7.43575 30.8397 6.61276 31.8453C6.18155 32.3728 6.9799 33.026 7.41111 32.4985C8.0419 31.7295 9.06448 31.2686 10.1487 31.2686C11.9991 31.2686 13.5047 32.5749 13.5047 34.182C13.5047 35.7891 11.9991 37.0955 10.1487 37.0955C8.49282 37.0955 7.10064 36.0676 6.83698 34.6503C6.79017 34.394 6.54623 34.2091 6.28504 34.2313C4.05262 34.431 2.68508 34.1722 2.22184 33.4598C1.5393 32.4123 2.83046 29.6196 8.72197 25.205C9.26653 24.7958 8.65052 23.9701 8.1035 24.3793C4.83126 26.8318 -0.392501 31.34 1.3545 34.0243C2.22184 35.3553 4.34091 35.3997 5.94007 35.2937V35.2912ZM16.8903 27.1991C18.3711 28.0125 19.8865 28.7963 21.5645 29.5974C20.1034 30.2555 18.6718 30.852 17.2771 31.3844C17.1071 30.0706 16.9765 28.6706 16.8903 27.1966V27.1991ZM22.7842 43.9675C20.6898 43.9675 18.487 39.585 17.4225 32.4344C19.1621 31.7788 20.9535 31.0221 22.7892 30.1742C24.5978 31.0073 26.3891 31.7591 28.1509 32.427C27.0864 39.5825 24.8836 43.97 22.7867 43.97L22.7842 43.9675ZM28.2938 31.377C26.8844 30.8372 25.4553 30.2432 24.0138 29.5974C25.7386 28.7692 27.2392 27.9903 28.6807 27.2015C28.5944 28.673 28.4638 30.0682 28.2938 31.3795V31.377ZM29.792 25.3898C29.8437 23.8419 29.8486 22.2866 29.792 20.5957C31.1718 21.3869 32.4753 22.1855 33.6975 22.9866C32.4728 23.7901 31.1644 24.5962 29.792 25.3898ZM43.3516 12.538C44.8916 14.9018 37.1052 20.682 34.6289 22.3679C33.1209 21.3647 31.4921 20.3689 29.7427 19.383C29.654 17.6206 29.4963 15.9075 29.2745 14.2585C36.8169 11.5053 42.3265 10.963 43.354 12.5405L43.3516 12.538ZM28.2815 14.6258C28.4564 15.9716 28.5895 17.3642 28.6757 18.7889C27.047 17.8991 25.5218 17.1227 24.0113 16.4005C25.4848 15.7399 26.914 15.1483 28.2815 14.6258ZM17.2894 14.6258C18.657 15.1483 20.0861 15.7399 21.5621 16.4029C19.9604 17.1695 18.4574 17.941 16.8952 18.7963C16.9814 17.3618 17.1145 15.9691 17.2894 14.6282V14.6258ZM16.8336 20.0066C18.7481 18.9393 20.6947 17.9386 22.7867 16.9625C24.822 17.9114 26.8179 18.9344 28.7374 20.0016C28.8187 21.9316 28.8285 23.8986 28.7423 25.9863C26.8376 27.0512 24.8614 28.0642 22.7916 29.0354C20.6775 28.047 18.7605 27.0635 16.8311 25.9863C16.7498 24.0292 16.7473 22.0401 16.8336 20.0066ZM11.8858 22.994C13.1227 22.1831 14.4213 21.3844 15.779 20.6031C15.7248 22.2644 15.7272 23.7926 15.779 25.3874C14.409 24.5962 13.1055 23.7951 11.8858 22.994ZM15.8307 19.3854C14.1158 20.3566 12.4846 21.3549 10.9544 22.3729C8.49282 20.7017 0.681819 14.8969 2.21691 12.538C3.24442 10.9605 8.75401 11.5028 16.294 14.256C16.0747 15.8952 15.917 17.6132 15.8258 19.3879L15.8307 19.3854Z" fill="#094166"/>
<path d="M5.94007 35.2912C6.4797 36.9575 8.17003 38.1258 10.1462 38.1258C12.8616 38.1258 14.9511 35.9099 14.4607 33.4746C15.1137 33.2626 15.7765 33.0359 16.4467 32.7943C17.0455 36.6641 18.8713 44.9979 22.7818 44.9979C27.833 44.9979 29.4741 31.7689 29.7377 26.6075C31.4774 25.6215 33.1184 24.6134 34.6239 23.6077C35.479 24.1919 36.2921 24.7761 37.0609 25.3627C36.536 26.0135 36.2256 26.8121 36.2256 27.6748C36.2256 29.6343 37.8494 31.3129 40.0029 31.5816C40.6855 31.6654 40.8013 30.6425 40.1311 30.5587C38.4925 30.3541 37.258 29.1143 37.258 27.6748C37.258 26.0677 38.7635 24.7613 40.614 24.7613C42.4645 24.7613 43.97 26.0677 43.97 27.6748C43.97 28.5547 43.5167 29.3805 42.7282 29.9375C42.4941 30.1027 42.4473 30.428 42.605 30.6548C43.4945 31.907 43.7458 32.8485 43.3491 33.4549C42.6493 34.5296 39.2563 34.9708 32.0022 32.676C31.3517 32.4689 31.0437 33.4549 31.6917 33.6595C34.1311 34.431 37.6843 35.3775 40.4465 35.3775C42.159 35.3775 43.5659 35.0127 44.214 34.0193C44.8103 33.1049 44.6402 31.9119 43.7162 30.4625C44.5368 29.7255 45 28.7322 45 27.6723C45 25.4958 43.0312 23.7261 40.614 23.7261C39.5495 23.7261 38.5738 24.0687 37.8149 24.6381C37.0954 24.0859 36.3389 23.5338 35.543 22.9817C38.6403 20.8446 46.2591 15.1089 44.214 11.9687C41.5947 7.95092 27.2368 13.7705 22.7842 15.8212C20.9658 14.9832 19.172 14.2289 17.4348 13.5708C17.5777 12.6194 17.7428 11.7024 17.9301 10.82C20.5321 11.0542 22.7547 9.208 22.7547 6.89349C22.7547 6.17868 22.5403 5.4762 22.1337 4.86737C21.7567 4.30046 20.8968 4.8723 21.2762 5.43922C21.5695 5.88043 21.7247 6.38327 21.7247 6.89349C21.7247 8.50059 20.2192 9.80696 18.3687 9.80696C16.5182 9.80696 15.0127 8.50059 15.0127 6.89349C15.0127 4.78603 17.5235 3.37613 19.7313 4.22897C19.7313 4.22897 19.7313 4.22897 19.7338 4.22897C19.9531 4.31278 20.2167 4.23637 20.3522 4.02193C20.9214 3.10993 21.806 2.02292 22.7818 2.02292C24.6766 2.02292 26.5665 5.53289 27.7123 11.1799C27.8503 11.8553 28.8581 11.6433 28.7226 10.9753C27.4388 4.63814 25.2729 1 22.7842 1C21.705 1 20.6701 1.71974 19.7042 3.14197C19.2754 3.01872 18.827 2.9571 18.3687 2.9571C15.949 2.9571 13.9827 4.72688 13.9827 6.90335C13.9827 8.62137 15.2122 10.0855 16.9198 10.6253C16.7424 11.4584 16.5847 12.3211 16.4467 13.2134C12.9478 11.944 3.3898 8.85553 1.3545 11.9785C-1.28202 16.0258 11.5113 24.1623 15.8283 26.6124C15.9194 28.3945 16.0771 30.1175 16.2964 31.7541C15.5597 32.0228 14.8303 32.2742 14.1158 32.5059C13.4135 31.1675 11.8981 30.2382 10.1462 30.2382C8.75647 30.2382 7.43575 30.8397 6.61276 31.8453C6.18155 32.3728 6.9799 33.026 7.41111 32.4985C8.0419 31.7295 9.06448 31.2686 10.1487 31.2686C11.9991 31.2686 13.5047 32.5749 13.5047 34.182C13.5047 35.7891 11.9991 37.0955 10.1487 37.0955C8.49282 37.0955 7.10064 36.0676 6.83698 34.6503C6.79017 34.394 6.54623 34.2091 6.28504 34.2313C4.05262 34.431 2.68508 34.1722 2.22184 33.4598C1.5393 32.4123 2.83046 29.6196 8.72197 25.205C9.26653 24.7958 8.65052 23.9701 8.1035 24.3793C4.83126 26.8318 -0.392501 31.34 1.3545 34.0243C2.22184 35.3553 4.34091 35.3997 5.94007 35.2937V35.2912ZM16.8903 27.1991C18.3711 28.0125 19.8865 28.7963 21.5645 29.5974C20.1034 30.2555 18.6718 30.852 17.2771 31.3844C17.1071 30.0706 16.9765 28.6706 16.8903 27.1966V27.1991ZM22.7842 43.9675C20.6898 43.9675 18.487 39.585 17.4225 32.4344C19.1621 31.7788 20.9535 31.0221 22.7892 30.1742C24.5978 31.0073 26.3891 31.7591 28.1509 32.427C27.0864 39.5825 24.8836 43.97 22.7867 43.97L22.7842 43.9675ZM28.2938 31.377C26.8844 30.8372 25.4553 30.2432 24.0138 29.5974C25.7386 28.7692 27.2392 27.9903 28.6807 27.2015C28.5944 28.673 28.4638 30.0682 28.2938 31.3795V31.377ZM29.792 25.3898C29.8437 23.8419 29.8486 22.2866 29.792 20.5957C31.1718 21.3869 32.4753 22.1855 33.6975 22.9866C32.4728 23.7901 31.1644 24.5962 29.792 25.3898ZM43.3516 12.538C44.8916 14.9018 37.1052 20.682 34.6289 22.3679C33.1209 21.3647 31.4921 20.3689 29.7427 19.383C29.654 17.6206 29.4963 15.9075 29.2745 14.2585C36.8169 11.5053 42.3265 10.963 43.354 12.5405L43.3516 12.538ZM28.2815 14.6258C28.4564 15.9716 28.5895 17.3642 28.6757 18.7889C27.047 17.8991 25.5218 17.1227 24.0113 16.4005C25.4848 15.7399 26.914 15.1483 28.2815 14.6258ZM17.2894 14.6258C18.657 15.1483 20.0861 15.7399 21.5621 16.4029C19.9604 17.1695 18.4574 17.941 16.8952 18.7963C16.9814 17.3618 17.1145 15.9691 17.2894 14.6282V14.6258ZM16.8336 20.0066C18.7481 18.9393 20.6947 17.9386 22.7867 16.9625C24.822 17.9114 26.8179 18.9344 28.7374 20.0016C28.8187 21.9316 28.8285 23.8986 28.7423 25.9863C26.8376 27.0512 24.8614 28.0642 22.7916 29.0354C20.6775 28.047 18.7605 27.0635 16.8311 25.9863C16.7498 24.0292 16.7473 22.0401 16.8336 20.0066ZM11.8858 22.994C13.1227 22.1831 14.4213 21.3844 15.779 20.6031C15.7248 22.2644 15.7272 23.7926 15.779 25.3874C14.409 24.5962 13.1055 23.7951 11.8858 22.994ZM15.8307 19.3854C14.1158 20.3566 12.4846 21.3549 10.9544 22.3729C8.49282 20.7017 0.681819 14.8969 2.21691 12.538C3.24442 10.9605 8.75401 11.5028 16.294 14.256C16.0747 15.8952 15.917 17.6132 15.8258 19.3879L15.8307 19.3854Z" stroke="#094166" stroke-width="0.6" mask="url(#path-1-outside-1_591_24539)"/>
<path d="M22.7844 26.9451C25.2041 26.9451 27.1704 25.1753 27.1704 22.9989C27.1704 20.8224 25.2016 19.0526 22.7844 19.0526C20.3672 19.0526 18.3984 20.8224 18.3984 22.9989C18.3984 25.1753 20.3672 26.9451 22.7844 26.9451ZM22.7844 20.0854C24.6349 20.0854 26.1404 21.3918 26.1404 22.9989C26.1404 24.606 24.6349 25.9123 22.7844 25.9123C20.9339 25.9123 19.4284 24.606 19.4284 22.9989C19.4284 21.3918 20.9339 20.0854 22.7844 20.0854Z" fill="#094166" stroke="#094166" stroke-width="0.3"/>
</svg>
