<svg width="41" height="44" viewBox="0 0 41 44" fill="none" xmlns="http://www.w3.org/2000/svg">
<g clip-path="url(#clip0_591_24514)">
<path d="M21.0358 43.1209H19.242C18.1239 43.1209 17.2153 42.2187 17.2153 41.1083H23.0392C23.0392 42.2187 22.1307 43.1209 21.0125 43.1209H21.0358Z" stroke="#094166" stroke-width="1.5" stroke-miterlimit="10"/>
<path d="M11.8108 13.3481C8.0136 17.1651 7.33803 23.0873 10.2034 27.6446L16.3301 37.4532H20.1505H23.971L30.0977 27.6446C32.963 23.0873 32.2875 17.1651 28.4903 13.3481C23.9011 8.74449 16.4233 8.74449 11.834 13.3481H11.8108Z" stroke="#094166" stroke-width="1.5" stroke-miterlimit="10"/>
<path d="M16.3301 37.4532H23.9477V40.1136C23.9477 40.6919 23.4818 41.1777 22.8761 41.1777H17.4017C16.8193 41.1777 16.3301 40.715 16.3301 40.1136V37.4532V37.4532Z" stroke="#094166" stroke-width="1.5" stroke-miterlimit="10"/>
<path d="M17.7045 37.407C17.7045 37.407 15.7244 25.2387 13.1619 20.959" stroke="#094166" stroke-width="1.5" stroke-linecap="round" stroke-linejoin="round"/>
<path d="M22.6199 37.407C22.6199 37.407 24.6 25.2387 27.1625 20.959" stroke="#094166" stroke-width="1.5" stroke-linecap="round" stroke-linejoin="round"/>
<path d="M13.1619 20.959C12.8358 20.3575 12.9057 19.6172 13.3017 19.062C13.5114 18.7613 13.8375 18.5068 14.1636 18.3449C15.2352 17.7897 16.5864 17.9054 17.5648 18.5762C18.1937 19.0158 18.6597 19.6866 19.3585 20.0105C20.1506 20.3806 21.1756 20.2187 21.8045 19.6172C22.1773 19.2702 22.4102 18.8307 22.7364 18.4606C23.5517 17.6046 24.9727 17.4196 25.9744 18.021C26.9761 18.6225 27.5352 19.8254 27.1392 20.9359" stroke="#094166" stroke-width="1.5" stroke-linecap="round" stroke-linejoin="round"/>
<path d="M21.1523 37.06C21.1523 37.06 20.5932 26.3491 24.2971 21.7224" stroke="#094166" stroke-width="1.5" stroke-miterlimit="10"/>
<path d="M24.9028 21.6993C24.9028 22.0232 24.6232 22.3008 24.2971 22.3008C23.971 22.3008 23.6914 22.0232 23.6914 21.6993C23.6914 21.3754 23.971 21.0978 24.2971 21.0978C24.6232 21.0978 24.9028 21.3754 24.9028 21.6993Z" stroke="#094166" stroke-width="1.5" stroke-miterlimit="10"/>
<path d="M19.3818 37.06C19.3818 37.06 19.9409 26.3491 16.2369 21.7224" stroke="#094166" stroke-width="1.5" stroke-miterlimit="10"/>
<path d="M15.6312 21.6993C15.6312 22.0232 15.9108 22.3008 16.2369 22.3008C16.563 22.3008 16.8426 22.0232 16.8426 21.6993C16.8426 21.3754 16.563 21.0978 16.2369 21.0978C15.9108 21.0978 15.6312 21.3754 15.6312 21.6993Z" stroke="#094166" stroke-width="1.5" stroke-miterlimit="10"/>
<path d="M20.1273 0.879089V7.54155" stroke="#094166" stroke-width="1.5" stroke-linecap="round" stroke-linejoin="round"/>
<path d="M15.1653 2.91483L16.8193 7.796" stroke="#094166" stroke-width="1.5" stroke-linecap="round" stroke-linejoin="round"/>
<path d="M9.97046 3.93271L13.1386 9.80863" stroke="#094166" stroke-width="1.5" stroke-linecap="round" stroke-linejoin="round"/>
<path d="M6.35962 8.3512L9.50451 12.307" stroke="#094166" stroke-width="1.5" stroke-linecap="round" stroke-linejoin="round"/>
<path d="M0.885254 12.7003L7.10514 15.1987" stroke="#094166" stroke-width="1.5" stroke-linecap="round" stroke-linejoin="round"/>
<path d="M1.37439 18.4606L5.917 19.409" stroke="#094166" stroke-width="1.5" stroke-linecap="round" stroke-linejoin="round"/>
<path d="M30.7733 3.93271L27.5818 9.80863" stroke="#094166" stroke-width="1.5" stroke-linecap="round" stroke-linejoin="round"/>
<path d="M25.4619 3.09988L23.6216 8.02733" stroke="#094166" stroke-width="1.5" stroke-linecap="round" stroke-linejoin="round"/>
<path d="M34.3608 8.3512L31.2159 12.307" stroke="#094166" stroke-width="1.5" stroke-linecap="round" stroke-linejoin="round"/>
<path d="M40.1148 12.7003L33.7551 14.8055" stroke="#094166" stroke-width="1.5" stroke-linecap="round" stroke-linejoin="round"/>
<path d="M38.6937 18.5068L34.6869 19.1083" stroke="#094166" stroke-width="1.5" stroke-linecap="round" stroke-linejoin="round"/>
</g>
<defs>
<clipPath id="clip0_591_24514">
<rect width="41" height="44" fill="white"/>
</clipPath>
</defs>
</svg>
