<svg width="967" height="141" viewBox="0 0 967 141" fill="none" xmlns="http://www.w3.org/2000/svg">
<path d="M243.24 14.3846C243.24 11 242.007 8.23077 239.502 6.15384C237.035 4.07692 233.22 3 228.133 3H134.368C129.551 3 125.851 4 123.308 6.03846C120.764 8.07692 119.492 10.8462 119.492 14.3462C119.492 17.8462 120.725 20.4615 123.153 22.5385C125.62 24.6154 129.358 25.6538 134.368 25.6538H166.548V124.192C166.548 129.808 166.587 140.846 166.587 140.846C166.587 140.846 176.954 140.962 181.347 140.962C185.74 140.962 189.17 139.577 191.868 136.846C194.566 134.115 195.953 129.885 195.953 124.231V25.6538H228.133C233.182 25.6538 236.92 24.6154 239.463 22.5385C241.968 20.4615 243.24 17.7308 243.24 14.3462V14.3846Z" fill="#1D2088"/>
<path d="M360.629 113.808L322.592 26.3077C320.819 21.923 319.316 18.423 318.16 15.8077C317.003 13.1923 315.578 10.7307 313.882 8.4615C312.186 6.19227 309.989 4.30766 307.215 2.84612C304.478 1.38458 301.048 0.653809 296.925 0.653809C292.801 0.653809 289.487 1.38458 286.751 2.84612C284.014 4.30766 281.779 6.19227 280.083 8.53842C278.388 10.8846 276.808 13.8461 275.305 17.3846C273.802 20.923 272.53 23.9615 271.489 26.5L234.261 114.577C232.719 118.077 231.64 120.846 230.985 122.808C230.33 124.769 229.983 126.692 229.983 128.538C229.983 131.731 231.409 134.615 234.261 137.154C237.113 139.692 240.388 140.962 244.088 140.962C248.443 140.962 251.603 139.769 253.53 137.385C255.457 135 257.769 130.423 260.467 123.654L267.404 106.269H326.6L333.537 123.308C334.462 125.423 335.579 127.808 336.851 130.577C338.123 133.308 339.356 135.346 340.474 136.692C341.591 138 342.979 139.077 344.636 139.846C346.293 140.615 348.258 141 350.609 141C354.579 141 357.97 139.692 360.784 137.077C363.597 134.462 365.023 131.577 365.023 128.423C365.023 125.269 363.52 120.577 360.552 113.885L360.629 113.808ZM275.227 85.5769L296.771 29.6153L318.738 85.5769H275.227Z" fill="#1D2088"/>
<path d="M464.337 76.5385C476.785 74 482.412 70.5385 488.54 64.5C494.667 58.4615 497.712 50.3846 497.712 40.2692C497.712 35.3462 496.787 30.6538 494.976 26.2692C493.164 21.8462 490.505 18 486.959 14.6538C483.452 11.3077 479.406 8.76923 474.858 6.96154C471.081 5.34615 466.842 4.30769 462.14 3.76923C457.439 3.23077 451.774 3 445.145 3H397.164C390.805 3 386.219 4.34615 383.367 6.96154C380.515 9.61538 379.089 13.8846 379.089 19.8077V140.885H393.888C398.243 140.885 401.789 139.538 404.525 136.808C407.223 134.077 408.61 129.885 408.61 124.154V80.5769H418.939C424.18 80.5769 431.81 80.8461 431.81 80.8461C434.662 80.9615 435.009 80 439.094 85.5385C441.985 89.4615 470.311 131.038 471.968 133.231C475.436 137.962 480.292 140.846 486.227 140.923C491.314 141 496.633 138.769 499.061 134.077C501.411 129.462 499.176 124.731 497.211 120.423C495.13 115.808 464.376 76.5385 464.376 76.5385H464.337ZM452.93 59.1923C448.112 60.3462 442.139 60.8846 435.048 60.8846H408.61V23.6154H435.818C445.954 23.6154 452.737 24.3077 456.167 25.6538C459.828 27.0769 462.641 29.2308 464.723 32.0769C466.765 34.9615 467.806 38.2692 467.806 42.0385C467.806 46.8462 466.534 50.6154 463.99 53.3846C461.447 56.1154 457.747 58.0769 452.93 59.2308V59.1923Z" fill="#1D2088"/>
<path d="M683.006 0.692383C678.883 0.692383 675.645 2.00008 673.217 4.61546C670.789 7.23085 669.595 11.1539 669.595 16.4232V97.077L612.866 17.1539C611.286 14.8078 609.744 12.577 608.241 10.3847C606.738 8.23085 605.312 6.46161 603.886 5.11546C602.46 3.7693 600.803 2.69238 598.915 1.88469C597.026 1.077 594.752 0.692383 592.093 0.692383C588.702 0.692383 585.58 1.577 582.651 3.34623C579.722 5.11546 577.641 7.38469 576.408 10.1539C575.367 12.6924 574.828 16.1539 574.828 20.6155V140.962H588.625C592.671 140.962 595.986 139.615 598.568 137C601.15 134.385 602.46 130.423 602.46 125.269V45.7308L657.802 124.731C659.382 126.885 660.962 129 662.581 131.077C664.161 133.154 665.895 134.962 667.745 136.5C669.595 138.039 671.599 139.154 673.718 139.885C675.838 140.577 678.227 140.962 680.887 140.962C691.485 140.962 696.765 135 696.765 123.115V16.4232C696.765 11.1924 695.531 7.26931 693.103 4.61546C690.637 2.00008 687.323 0.692383 683.083 0.692383H683.006Z" fill="#00A0E9"/>
<path d="M819.78 116.769H751.066V78.1923H801.089C805.675 78.1923 809.028 77.2308 811.225 75.2692C813.422 73.3077 814.501 70.8077 814.501 67.7308C814.501 64.6538 813.383 62.1538 811.186 60.2692C808.951 58.3846 805.598 57.4615 801.089 57.4615H751.066V24.1923H817.507C822.208 24.1923 825.715 23.2308 827.989 21.2692C830.263 19.3077 831.419 16.7692 831.419 13.5385C831.419 10.3077 830.263 7.84615 827.989 5.92307C825.715 3.96154 822.208 3 817.507 3H739.658C735.496 3 732.066 3.57692 729.368 4.69231C726.671 5.84615 724.705 7.65384 723.472 10.1538C722.2 12.6538 721.584 15.8846 721.584 19.8077V138.577H819.819C824.444 138.577 827.951 137.577 830.302 135.577C832.652 133.577 833.808 130.962 833.808 127.769C833.808 124.577 832.614 121.769 830.302 119.769C827.951 117.769 824.444 116.769 819.819 116.769H819.78Z" fill="#00A0E9"/>
<path d="M963.183 6.15385C960.717 4.07692 956.902 3 951.814 3H858.049C853.232 3 849.532 4 846.989 6.03846C844.445 8.07692 843.174 10.8462 843.174 14.3462C843.174 17.8462 844.407 20.4615 846.835 22.5385C849.301 24.6154 853.039 25.6538 858.049 25.6538H890.229V124.192C890.229 129.808 890.229 140.923 890.229 140.923H904.99C909.306 140.923 912.813 139.538 915.511 136.808C918.209 134.077 919.596 129.846 919.596 124.192V25.6538H951.776C956.824 25.6538 960.563 24.6154 963.106 22.5385C965.611 20.4615 966.883 17.7308 966.883 14.3462C966.883 10.9615 965.65 8.19231 963.145 6.11538L963.183 6.15385Z" fill="#00A0E9"/>
<path d="M45.4591 21.3846C54.7084 19.9615 64.4202 21.7307 72.9758 25.1923C79.9128 28 86.0404 32.3461 91.5129 37.5384C96.1761 41.9615 106.389 41.8461 110.243 36.3461C116.024 28.0769 106.427 19.3846 100.685 14.8846C90.6651 7.03842 76.4057 1.30765 63.765 0.346115C48.812 -0.807731 32.2017 1.30766 19.4069 9.57689C3.87573 19.6153 -2.83001 42.923 9.23263 58.2307C19.4839 71.3077 36.8649 75.423 52.2804 78.7307C62.1849 80.8461 74.7871 82.6153 82.4178 89.8846C85.3467 92.6923 86.8497 96.3461 86.8497 100.846C86.8497 106.538 84.1135 111.269 78.641 115.038C73.9778 118.269 68.1199 120.115 61.0673 120.615C44.1102 121.769 27.8854 114.154 18.7517 99.7692C16.0925 95.5769 10.3503 92.6153 5.37875 94.7307C-2.94563 98.2692 0.0603992 108.077 3.3362 114.192C7.72962 122.461 14.3583 128.846 22.6056 133.308C31.932 138.385 43.8019 140.885 58.1769 140.885C70.1624 140.885 80.5294 139.038 89.2777 135.346C98.026 131.654 104.655 126.538 109.202 120C113.75 113.462 116.024 106.077 116.024 97.8846C116.024 91.0384 114.713 85.2692 112.093 80.5384C109.472 75.8076 105.849 71.923 101.186 68.8461C96.523 65.7692 90.8578 63.1538 84.1906 61C77.5233 58.8461 70.0854 56.8846 61.8766 55.0769C55.325 53.5384 50.6233 52.3461 47.7714 51.5769C40.8344 49.6153 32.8954 48.1153 30.2748 40.3846C27.1146 31.0769 34.2443 23.8461 42.7999 21.8461C43.6863 21.6538 44.6112 21.5 45.4976 21.3846" fill="#1D2088"/>
<path d="M542.995 116.962L537.599 106.039L532.204 116.962L520.141 118.731L528.851 127.231L526.809 139.231L537.599 133.539L548.39 139.231L546.348 127.231L555.096 118.731L542.995 116.962Z" fill="url(#paint0_linear_404_15807)"/>
<defs>
<linearGradient id="paint0_linear_404_15807" x1="520.141" y1="122.615" x2="555.096" y2="122.615" gradientUnits="userSpaceOnUse">
<stop stop-color="#1D2088"/>
<stop offset="1" stop-color="#00A0E9"/>
</linearGradient>
</defs>
</svg>
