<svg width="355" height="355" viewBox="0 0 355 355" fill="none" xmlns="http://www.w3.org/2000/svg">
<circle cx="177.5" cy="177.5" r="177.5" fill="white"/>
<path d="M198.821 271.48C196.632 271.48 194.823 273.285 194.823 275.47V318.972C194.823 321.157 196.632 322.961 198.821 322.961C201.01 322.961 202.818 321.157 202.818 318.972V275.47C202.818 273.285 201.01 271.48 198.821 271.48Z" fill="#F5CD1E"/>
<path d="M282.241 240.658L258.305 230.543C256.211 229.64 253.736 230.638 252.832 232.727C251.928 234.817 252.927 237.286 255.069 238.189L279.005 248.305C281.099 249.207 283.573 248.21 284.477 246.072C285.382 243.983 284.382 241.513 282.241 240.611V240.658Z" fill="#F5CD1E"/>
<path d="M144.191 232.775C143.287 230.685 140.86 229.688 138.718 230.59L114.782 240.706C112.688 241.608 111.689 244.03 112.545 246.168C113.45 248.257 115.876 249.255 118.018 248.4L141.954 238.284C144.048 237.382 145.047 234.96 144.191 232.822V232.775Z" fill="#F5CD1E"/>
<path d="M304.98 52C296.148 52 288.96 59.1388 288.96 67.9094C288.96 72.1927 290.705 76.068 293.427 78.9235L227.652 176.572L204.494 130.017C200.694 125.173 197.87 130.017 197.87 130.017L173.635 178.816L142.159 135.422C151.761 127.315 157.923 115.281 157.923 101.819C157.923 77.5468 138 57.762 113.559 57.762C89.1178 57.762 69.1953 77.5468 69.1953 101.819C69.1953 116.963 76.9487 130.323 88.6557 138.278L55.229 196.408C51.8401 194.98 48.1431 194.215 44.2921 194.215C28.6827 194.215 16 206.81 16 222.312C16 237.813 28.6827 250.408 44.2921 250.408C59.9015 250.408 72.5842 237.813 72.5842 222.312C72.5842 213.082 68.0657 204.975 61.1338 199.876L94.612 141.643C100.363 144.346 106.781 145.926 113.559 145.926C122.031 145.926 129.887 143.53 136.614 139.451L166.652 180.805L117.718 187.842C112.121 190.034 115.767 193.961 115.818 194.062L155.817 232.816L146.472 286.918C145.291 292.272 149.553 292.068 150.477 291.966L201.157 265.502L250.398 291.201C256.098 293.394 256.046 287.836 256.046 287.836L246.547 232.765L286.341 194.215C290.089 189.932 285.827 188.096 285.211 187.842L233.3 180.346L299.126 82.6969C300.923 83.4108 302.875 83.8187 304.98 83.8187C313.811 83.8187 321 76.6799 321 67.9094C321 59.1388 313.811 52 304.98 52V52ZM130.965 121.145C121.21 130.833 105.446 130.833 95.7416 121.145C85.9857 111.456 85.9857 95.8017 95.7416 86.1643C105.497 76.5269 121.261 76.4759 130.965 86.1643C140.721 95.8527 140.721 111.507 130.965 121.145ZM244.134 199.213H244.082C247.882 199.57 246.085 203.037 246.085 203.037C246.085 203.037 246.085 203.037 246.136 203.037L225.29 223.179L230.116 251.02C230.732 254.691 226.933 253.876 226.933 253.876L201.259 240.465L175.843 253.723C172.248 255.048 172.402 251.122 172.402 251.122L177.229 223.128L156.793 203.343C154.277 200.487 158.025 199.213 158.025 199.213L186.471 195.133L199.154 169.638C201.105 166.476 203.467 169.587 203.467 169.587L216.201 195.184L244.237 199.213H244.134Z" fill="url(#paint0_linear_431_22681)"/>
<defs>
<linearGradient id="paint0_linear_431_22681" x1="16.0513" y1="171.983" x2="321" y2="171.983" gradientUnits="userSpaceOnUse">
<stop stop-color="#1D2088"/>
<stop offset="1" stop-color="#00A0E9"/>
</linearGradient>
</defs>
</svg>
