<svg width="313" height="313" viewBox="0 0 313 313" fill="none" xmlns="http://www.w3.org/2000/svg">
<circle cx="156.5" cy="156.5" r="156.5" fill="white"/>
<path d="M182.048 237.269C180.275 237.269 178.811 238.731 178.811 240.5V275.731C178.811 277.5 180.275 278.962 182.048 278.962C183.821 278.962 185.285 277.5 185.285 275.731V240.5C185.285 238.731 183.821 237.269 182.048 237.269Z" fill="#F5CD1E"/>
<path d="M249.606 212.308L230.221 204.115C228.526 203.385 226.522 204.192 225.789 205.885C225.057 207.577 225.867 209.577 227.601 210.308L246.986 218.5C248.681 219.231 250.685 218.423 251.418 216.692C252.15 215 251.341 213 249.606 212.269V212.308Z" fill="#F5CD1E"/>
<path d="M137.805 205.923C137.073 204.231 135.108 203.423 133.373 204.154L113.988 212.346C112.293 213.077 111.483 215.038 112.177 216.769C112.909 218.462 114.875 219.269 116.609 218.577L135.994 210.385C137.69 209.654 138.499 207.692 137.805 205.962V205.923Z" fill="#F5CD1E"/>
<path d="M259.896 66C253.268 66 247.872 71.3846 247.872 78C247.872 81.2308 249.183 84.1538 251.225 86.3077L201.857 159.962L184.476 124.846C181.624 121.192 179.504 124.846 179.504 124.846L161.314 161.654L137.69 128.923C144.897 122.808 149.521 113.731 149.521 103.577C149.521 85.2692 134.568 70.3462 116.224 70.3462C97.8792 70.3462 82.9262 85.2692 82.9262 103.577C82.9262 115 88.7455 125.077 97.5324 131.077L72.4436 174.923C69.9001 173.846 67.1253 173.269 64.2349 173.269C52.5191 173.269 43 182.769 43 194.462C43 206.154 52.5191 215.654 64.2349 215.654C75.9507 215.654 85.4697 206.154 85.4697 194.462C85.4697 187.5 82.0783 181.385 76.8756 177.538L102.003 133.615C106.319 135.654 111.137 136.846 116.224 136.846C122.583 136.846 128.479 135.038 133.528 131.962L156.073 163.154L119.345 168.462C115.145 170.115 117.881 173.077 117.919 173.154L147.941 202.385L140.927 243.192C140.041 247.231 143.239 247.077 143.933 247L181.971 227.038L218.93 246.423C223.207 248.077 223.169 243.885 223.169 243.885L216.039 202.346L245.907 173.269C248.72 170.038 245.521 168.654 245.059 168.462L206.096 162.808L255.503 89.1538C256.852 89.6923 258.316 90 259.896 90C266.525 90 271.92 84.6154 271.92 78C271.92 71.3846 266.525 66 259.896 66V66ZM129.288 118.154C121.966 125.462 110.135 125.462 102.851 118.154C95.5284 110.846 95.5284 99.0385 102.851 91.7692C110.173 84.5 122.005 84.4615 129.288 91.7692C136.611 99.0769 136.611 110.885 129.288 118.154ZM214.228 177.038H214.189C217.041 177.308 215.692 179.923 215.692 179.923C215.692 179.923 215.692 179.923 215.731 179.923L200.084 195.115L203.707 216.115C204.169 218.885 201.317 218.269 201.317 218.269L182.048 208.154L162.971 218.154C160.274 219.154 160.389 216.192 160.389 216.192L164.012 195.077L148.673 180.154C146.785 178 149.598 177.038 149.598 177.038L170.949 173.962L180.468 154.731C181.932 152.346 183.705 154.692 183.705 154.692L193.263 174L214.305 177.038H214.228Z" fill="url(#paint0_linear_423_23667)"/>
<defs>
<linearGradient id="paint0_linear_423_23667" x1="43.0385" y1="156.5" x2="271.92" y2="156.5" gradientUnits="userSpaceOnUse">
<stop stop-color="#1D2088"/>
<stop offset="1" stop-color="#00A0E9"/>
</linearGradient>
</defs>
</svg>
