<svg width="1228" height="213" viewBox="0 0 1228 213" fill="none" xmlns="http://www.w3.org/2000/svg">
<g clip-path="url(#clip0_404_15773)">
<path d="M504.357 50.3846C504.357 47 503.124 44.2308 500.619 42.1538C498.152 40.0769 494.337 39 489.25 39H395.485C390.668 39 386.968 40 384.424 42.0385C381.881 44.0769 380.609 46.8462 380.609 50.3462C380.609 53.8462 381.842 56.4615 384.27 58.5385C386.737 60.6154 390.475 61.6538 395.485 61.6538H427.665V160.192C427.665 165.808 427.703 176.846 427.703 176.846C427.703 176.846 438.07 176.962 442.464 176.962C446.857 176.962 450.287 175.577 452.985 172.846C455.683 170.115 457.07 165.885 457.07 160.231V61.6538H489.25C494.298 61.6538 498.037 60.6154 500.58 58.5385C503.085 56.4615 504.357 53.7308 504.357 50.3462V50.3846Z" fill="#1D2088"/>
<path d="M621.746 149.808L583.709 62.3077C581.936 57.923 580.433 54.423 579.277 51.8077C578.12 49.1923 576.694 46.7307 574.999 44.4615C573.303 42.1923 571.106 40.3077 568.332 38.8461C565.595 37.3846 562.165 36.6538 558.042 36.6538C553.918 36.6538 550.604 37.3846 547.867 38.8461C545.131 40.3077 542.896 42.1923 541.2 44.5384C539.504 46.8846 537.924 49.8461 536.421 53.3846C534.918 56.923 533.647 59.9615 532.606 62.5L495.378 150.577C493.836 154.077 492.757 156.846 492.102 158.808C491.447 160.769 491.1 162.692 491.1 164.538C491.1 167.731 492.526 170.615 495.378 173.154C498.229 175.692 501.505 176.962 505.205 176.962C509.56 176.962 512.72 175.769 514.647 173.385C516.574 171 518.886 166.423 521.584 159.654L528.521 142.269H587.717L594.654 159.308C595.578 161.423 596.696 163.808 597.968 166.577C599.24 169.308 600.473 171.346 601.591 172.692C602.708 174 604.095 175.077 605.753 175.846C607.41 176.615 609.375 177 611.726 177C615.696 177 619.087 175.692 621.9 173.077C624.714 170.462 626.14 167.577 626.14 164.423C626.14 161.269 624.637 156.577 621.669 149.885L621.746 149.808ZM536.344 121.577L557.887 65.6153L579.855 121.577H536.344Z" fill="#1D2088"/>
<path d="M725.454 112.538C737.902 110 743.529 106.538 749.656 100.5C755.784 94.4615 758.829 86.3846 758.829 76.2692C758.829 71.3462 757.904 66.6538 756.092 62.2692C754.281 57.8462 751.622 54 748.076 50.6538C744.569 47.3077 740.523 44.7692 735.975 42.9615C732.198 41.3462 727.959 40.3077 723.257 39.7692C718.556 39.2308 712.89 39 706.262 39H658.281C651.922 39 647.336 40.3462 644.484 42.9615C641.632 45.6154 640.206 49.8846 640.206 55.8077V176.885H655.005C659.36 176.885 662.906 175.538 665.642 172.808C668.34 170.077 669.727 165.885 669.727 160.154V116.577H680.055C685.297 116.577 692.927 116.846 692.927 116.846C695.779 116.962 696.126 116 700.211 121.538C703.102 125.462 731.428 167.038 733.085 169.231C736.553 173.962 741.409 176.846 747.344 176.923C752.431 177 757.75 174.769 760.178 170.077C762.528 165.462 760.293 160.731 758.328 156.423C756.247 151.808 725.493 112.538 725.493 112.538H725.454ZM714.047 95.1923C709.229 96.3462 703.256 96.8846 696.165 96.8846H669.727V59.6154H696.935C707.071 59.6154 713.854 60.3077 717.284 61.6538C720.945 63.0769 723.758 65.2308 725.839 68.0769C727.882 70.9615 728.923 74.2692 728.923 78.0385C728.923 82.8462 727.651 86.6154 725.107 89.3846C722.564 92.1154 718.864 94.0769 714.047 95.2308V95.1923Z" fill="#1D2088"/>
<path d="M944.123 36.6924C940 36.6924 936.762 38.0001 934.334 40.6155C931.906 43.2308 930.712 47.1539 930.712 52.4232V133.077L873.983 53.1539C872.402 50.8078 870.861 48.577 869.358 46.3847C867.855 44.2308 866.429 42.4616 865.003 41.1155C863.577 39.7693 861.92 38.6924 860.032 37.8847C858.143 37.077 855.869 36.6924 853.21 36.6924C849.819 36.6924 846.697 37.577 843.768 39.3462C840.839 41.1155 838.758 43.3847 837.525 46.1539C836.484 48.6924 835.945 52.1539 835.945 56.6155V176.962H849.742C853.788 176.962 857.103 175.615 859.685 173C862.267 170.385 863.577 166.423 863.577 161.269V81.7308L918.919 160.731C920.499 162.885 922.079 165 923.698 167.077C925.278 169.154 927.012 170.962 928.862 172.5C930.712 174.039 932.716 175.154 934.835 175.885C936.955 176.577 939.344 176.962 942.004 176.962C952.602 176.962 957.882 171 957.882 159.115V52.4232C957.882 47.1924 956.648 43.2693 954.22 40.6155C951.754 38.0001 948.44 36.6924 944.2 36.6924H944.123Z" fill="#00A0E9"/>
<path d="M1080.9 152.769H1012.18V114.192H1062.21C1066.79 114.192 1070.15 113.231 1072.34 111.269C1074.54 109.308 1075.62 106.808 1075.62 103.731C1075.62 100.654 1074.5 98.1538 1072.3 96.2692C1070.07 94.3846 1066.72 93.4615 1062.21 93.4615H1012.18V60.1923H1078.62C1083.33 60.1923 1086.83 59.2308 1089.11 57.2692C1091.38 55.3077 1092.54 52.7692 1092.54 49.5385C1092.54 46.3077 1091.38 43.8462 1089.11 41.9231C1086.83 39.9615 1083.33 39 1078.62 39H1000.78C996.613 39 993.183 39.5769 990.485 40.6923C987.788 41.8462 985.822 43.6538 984.589 46.1538C983.317 48.6538 982.701 51.8846 982.701 55.8077V174.577H1080.94C1085.56 174.577 1089.07 173.577 1091.42 171.577C1093.77 169.577 1094.93 166.962 1094.93 163.769C1094.93 160.577 1093.73 157.769 1091.42 155.769C1089.07 153.769 1085.56 152.769 1080.94 152.769H1080.9Z" fill="#00A0E9"/>
<path d="M1224.3 42.1538C1221.83 40.0769 1218.02 39 1212.93 39H1119.17C1114.35 39 1110.65 40 1108.11 42.0385C1105.56 44.0769 1104.29 46.8462 1104.29 50.3462C1104.29 53.8462 1105.52 56.4615 1107.95 58.5385C1110.42 60.6154 1114.16 61.6538 1119.17 61.6538H1151.35V160.192C1151.35 165.808 1151.35 176.923 1151.35 176.923H1166.11C1170.42 176.923 1173.93 175.538 1176.63 172.808C1179.33 170.077 1180.71 165.846 1180.71 160.192V61.6538H1212.89C1217.94 61.6538 1221.68 60.6154 1224.22 58.5385C1226.73 56.4615 1228 53.7308 1228 50.3462C1228 46.9615 1226.77 44.1923 1224.26 42.1154L1224.3 42.1538Z" fill="#00A0E9"/>
<path d="M306.576 57.3846C315.825 55.9615 325.537 57.7307 334.093 61.1923C341.03 64 347.157 68.3461 352.63 73.5384C357.293 77.9615 367.506 77.8461 371.36 72.3461C377.141 64.0769 367.544 55.3846 361.802 50.8846C351.782 43.0384 337.523 37.3077 324.882 36.3461C309.929 35.1923 293.319 37.3077 280.524 45.5769C264.993 55.6153 258.287 78.923 270.35 94.2307C280.601 107.308 297.982 111.423 313.397 114.731C323.302 116.846 335.904 118.615 343.535 125.885C346.464 128.692 347.967 132.346 347.967 136.846C347.967 142.538 345.231 147.269 339.758 151.038C335.095 154.269 329.237 156.115 322.184 156.615C305.227 157.769 289.002 150.154 279.869 135.769C277.21 131.577 271.467 128.615 266.496 130.731C258.171 134.269 261.177 144.077 264.453 150.192C268.847 158.461 275.475 164.846 283.723 169.308C293.049 174.385 304.919 176.885 319.294 176.885C331.279 176.885 341.646 175.038 350.395 171.346C359.143 167.654 365.772 162.538 370.319 156C374.867 149.462 377.141 142.077 377.141 133.885C377.141 127.038 375.83 121.269 373.21 116.538C370.589 111.808 366.966 107.923 362.303 104.846C357.64 101.769 351.975 99.1538 345.308 97C338.64 94.8461 331.202 92.8846 322.994 91.0769C316.442 89.5384 311.74 88.3461 308.888 87.5769C301.951 85.6153 294.012 84.1153 291.392 76.3846C288.232 67.0769 295.361 59.8461 303.917 57.8461C304.803 57.6538 305.728 57.5 306.615 57.3846" fill="#1D2088"/>
<path d="M804.112 152.962L798.716 142.039L793.321 152.962L781.258 154.731L789.968 163.231L787.925 175.231L798.716 169.539L809.507 175.231L807.465 163.231L816.213 154.731L804.112 152.962Z" fill="url(#paint0_linear_404_15773)"/>
<path d="M139.009 171.269C137.237 171.269 135.772 172.731 135.772 174.5V209.731C135.772 211.5 137.237 212.962 139.009 212.962C140.782 212.962 142.247 211.5 142.247 209.731V174.5C142.247 172.731 140.782 171.269 139.009 171.269Z" fill="#F5CD1E"/>
<path d="M206.568 146.308L187.183 138.115C185.487 137.385 183.483 138.192 182.751 139.885C182.019 141.577 182.828 143.577 184.562 144.308L203.947 152.5C205.643 153.231 207.647 152.423 208.379 150.692C209.111 149 208.302 147 206.568 146.269V146.308Z" fill="#F5CD1E"/>
<path d="M94.7669 139.923C94.0346 138.231 92.0692 137.423 90.3349 138.154L70.9499 146.346C69.2542 147.077 68.4449 149.038 69.1386 150.769C69.8708 152.462 71.8363 153.269 73.5705 152.577L92.9556 144.385C94.6513 143.654 95.4606 141.692 94.7669 139.962V139.923Z" fill="#F5CD1E"/>
<path d="M216.858 0C210.229 0 204.834 5.38461 204.834 12C204.834 15.2308 206.144 18.1538 208.187 20.3077L158.818 93.9615L141.437 58.8462C138.585 55.1923 136.466 58.8462 136.466 58.8462L118.276 95.6538L94.6513 62.9231C101.858 56.8077 106.483 47.7308 106.483 37.5769C106.483 19.2692 91.5296 4.34615 73.1852 4.34615C54.8407 4.34615 39.8876 19.2692 39.8876 37.5769C39.8876 49 45.707 59.0769 54.4938 65.0769L29.4051 108.923C26.8615 107.846 24.0867 107.269 21.1963 107.269C9.48054 107.269 -0.0385437 116.769 -0.0385437 128.462C-0.0385437 140.154 9.48054 149.654 21.1963 149.654C32.9121 149.654 42.4312 140.154 42.4312 128.462C42.4312 121.5 39.0398 115.385 33.8371 111.538L58.9643 67.6154C63.2807 69.6538 68.098 70.8462 73.1852 70.8462C79.5441 70.8462 85.4405 69.0385 90.4891 65.9615L113.034 97.1538L76.3068 102.462C72.1061 104.115 74.8423 107.077 74.8809 107.154L104.903 136.385L97.8885 177.192C97.0021 181.231 100.201 181.077 100.895 181L138.932 161.038L175.891 180.423C180.169 182.077 180.13 177.885 180.13 177.885L173.001 136.346L202.868 107.269C205.681 104.038 202.483 102.654 202.02 102.462L163.058 96.8077L212.464 23.1538C213.813 23.6923 215.278 24 216.858 24C223.486 24 228.882 18.6154 228.882 12C228.882 5.38461 223.486 0 216.858 0V0ZM86.2498 52.1538C78.9274 59.4615 67.096 59.4615 59.8122 52.1538C52.4898 44.8462 52.4898 33.0385 59.8122 25.7692C67.1346 18.5 78.966 18.4615 86.2498 25.7692C93.5722 33.0769 93.5722 44.8846 86.2498 52.1538ZM171.189 111.038H171.151C174.003 111.308 172.654 113.923 172.654 113.923C172.654 113.923 172.654 113.923 172.692 113.923L157.046 129.115L160.668 150.115C161.131 152.885 158.279 152.269 158.279 152.269L139.009 142.154L119.933 152.154C117.235 153.154 117.351 150.192 117.351 150.192L120.973 129.077L105.635 114.154C103.746 112 106.56 111.038 106.56 111.038L127.91 107.962L137.429 88.7308C138.894 86.3462 140.667 88.6923 140.667 88.6923L150.224 108L171.266 111.038H171.189Z" fill="url(#paint1_linear_404_15773)"/>
</g>
<defs>
<linearGradient id="paint0_linear_404_15773" x1="781.258" y1="158.615" x2="816.213" y2="158.615" gradientUnits="userSpaceOnUse">
<stop stop-color="#1D2088"/>
<stop offset="1" stop-color="#00A0E9"/>
</linearGradient>
<linearGradient id="paint1_linear_404_15773" x1="-4.91349e-06" y1="90.5" x2="228.882" y2="90.5" gradientUnits="userSpaceOnUse">
<stop stop-color="#1D2088"/>
<stop offset="1" stop-color="#00A0E9"/>
</linearGradient>
<clipPath id="clip0_404_15773">
<rect width="1228" height="213" fill="white"/>
</clipPath>
</defs>
</svg>
