<svg width="229" height="213" viewBox="0 0 229 213" fill="none" xmlns="http://www.w3.org/2000/svg">
<path d="M139.048 171.269C137.275 171.269 135.811 172.731 135.811 174.5V209.731C135.811 211.5 137.275 212.962 139.048 212.962C140.821 212.962 142.285 211.5 142.285 209.731V174.5C142.285 172.731 140.821 171.269 139.048 171.269Z" fill="#F5CD1E"/>
<path d="M206.606 146.308L187.221 138.115C185.526 137.385 183.522 138.192 182.789 139.885C182.057 141.577 182.867 143.577 184.601 144.308L203.986 152.5C205.681 153.231 207.685 152.423 208.418 150.692C209.15 149 208.341 147 206.606 146.269V146.308Z" fill="#F5CD1E"/>
<path d="M94.8054 139.923C94.0731 138.231 92.1077 137.423 90.3734 138.154L70.9884 146.346C69.2927 147.077 68.4834 149.038 69.1771 150.769C69.9093 152.462 71.8748 153.269 73.609 152.577L92.994 144.385C94.6898 143.654 95.4991 141.692 94.8054 139.962V139.923Z" fill="#F5CD1E"/>
<path d="M216.896 0C210.268 0 204.872 5.38461 204.872 12C204.872 15.2308 206.183 18.1538 208.225 20.3077L158.857 93.9615L141.476 58.8462C138.624 55.1923 136.504 58.8462 136.504 58.8462L118.314 95.6538L94.6898 62.9231C101.897 56.8077 106.521 47.7308 106.521 37.5769C106.521 19.2692 91.5682 4.34615 73.2237 4.34615C54.8792 4.34615 39.9262 19.2692 39.9262 37.5769C39.9262 49 45.7455 59.0769 54.5324 65.0769L29.4436 108.923C26.9001 107.846 24.1253 107.269 21.2349 107.269C9.51908 107.269 0 116.769 0 128.462C0 140.154 9.51908 149.654 21.2349 149.654C32.9507 149.654 42.4697 140.154 42.4697 128.462C42.4697 121.5 39.0783 115.385 33.8756 111.538L59.0029 67.6154C63.3192 69.6538 68.1366 70.8462 73.2237 70.8462C79.5826 70.8462 85.479 69.0385 90.5276 65.9615L113.073 97.1538L76.3453 102.462C72.1446 104.115 74.8809 107.077 74.9194 107.154L104.941 136.385L97.9271 177.192C97.0407 181.231 100.239 181.077 100.933 181L138.971 161.038L175.93 180.423C180.207 182.077 180.169 177.885 180.169 177.885L173.039 136.346L202.907 107.269C205.72 104.038 202.521 102.654 202.059 102.462L163.096 96.8077L212.503 23.1538C213.852 23.6923 215.316 24 216.896 24C223.525 24 228.92 18.6154 228.92 12C228.92 5.38461 223.525 0 216.896 0V0ZM86.2883 52.1538C78.966 59.4615 67.1346 59.4615 59.8507 52.1538C52.5284 44.8462 52.5284 33.0385 59.8507 25.7692C67.1731 18.5 79.0045 18.4615 86.2883 25.7692C93.6107 33.0769 93.6107 44.8846 86.2883 52.1538ZM171.228 111.038H171.189C174.041 111.308 172.692 113.923 172.692 113.923C172.692 113.923 172.692 113.923 172.731 113.923L157.084 129.115L160.707 150.115C161.169 152.885 158.317 152.269 158.317 152.269L139.048 142.154L119.971 152.154C117.274 153.154 117.389 150.192 117.389 150.192L121.012 129.077L105.673 114.154C103.785 112 106.598 111.038 106.598 111.038L127.949 107.962L137.468 88.7308C138.932 86.3462 140.705 88.6923 140.705 88.6923L150.263 108L171.305 111.038H171.228Z" fill="url(#paint0_linear_404_15808)"/>
<defs>
<linearGradient id="paint0_linear_404_15808" x1="0.0385388" y1="90.5" x2="228.92" y2="90.5" gradientUnits="userSpaceOnUse">
<stop stop-color="#1D2088"/>
<stop offset="1" stop-color="#00A0E9"/>
</linearGradient>
</defs>
</svg>
